<svg width="15" height="22" viewBox="0 0 15 22" fill="none" xmlns="http://www.w3.org/2000/svg">
<g id="Symbol.svg" clip-path="url(#clip0_0_4390)">
<path id="Vector" d="M7.5 10.9995C7.5 9.08624 9.05103 7.53516 10.9644 7.53516C12.8777 7.53516 14.4287 9.08624 14.4287 10.9995C14.4287 12.9129 12.8777 14.4639 10.9644 14.4639C9.05103 14.4639 7.5 12.9129 7.5 10.9995Z" fill="#1ABCFE"/>
<path id="Vector_2" d="M0.570312 17.9292C0.570312 16.0159 2.12136 14.4648 4.03468 14.4648H7.49905V17.9292C7.49905 19.8425 5.94801 21.3936 4.03468 21.3936C2.12136 21.3936 0.570312 19.8425 0.570312 17.9292Z" fill="#0ACF83"/>
<path id="Vector_3" d="M7.5 0.605469V7.53418H10.9644C12.8777 7.53418 14.4287 5.98315 14.4287 4.06983C14.4287 2.15652 12.8777 0.605469 10.9644 0.605469H7.5Z" fill="#FF7262"/>
<path id="Vector_4" d="M0.570312 4.06984C0.570312 5.98315 2.12136 7.53418 4.03468 7.53418H7.49905V0.605469H4.03468C2.12136 0.605469 0.570312 2.15652 0.570312 4.06984Z" fill="#F24E1E"/>
<path id="Vector_5" d="M0.570312 10.9995C0.570312 12.9129 2.12136 14.4639 4.03468 14.4639H7.49905V7.53516H4.03468C2.12136 7.53516 0.570312 9.08624 0.570312 10.9995Z" fill="#A259FF"/>
</g>
<defs>
<clipPath id="clip0_0_4390">
<rect width="14" height="21" fill="white" transform="translate(0.5 0.5)"/>
</clipPath>
</defs>
</svg>
