<svg width="171" height="170" viewBox="0 0 171 170" fill="none" xmlns="http://www.w3.org/2000/svg">
<path id="Ellipse 23" d="M65.8215 4.37358C65.4273 2.76855 63.8044 1.78191 62.2142 2.23198C42.9164 7.69368 26.1173 19.7796 14.8025 36.4156C2.9256 53.8779 -2.06837 75.118 0.782791 96.0432C3.63396 116.968 14.1285 136.098 30.2443 149.746C46.3602 163.394 66.9569 170.595 88.0659 169.961C109.175 169.328 129.303 160.904 144.571 146.314C159.839 131.723 169.167 111.998 170.757 90.9397C172.348 69.8812 166.088 48.979 153.185 32.2607C140.893 16.3335 123.399 5.27722 103.808 0.983139C102.194 0.629272 100.633 1.71152 100.336 3.3373C100.039 4.96307 101.118 6.51633 102.731 6.87444C120.868 10.8999 137.058 21.1606 148.447 35.9175C160.447 51.4655 166.268 70.9045 164.789 90.489C163.31 110.073 154.635 128.417 140.436 141.987C126.236 155.556 107.518 163.39 87.8863 163.979C68.2549 164.569 49.1 157.872 34.1122 145.179C19.1245 132.486 9.36458 114.696 6.713 95.2351C4.06141 75.7747 8.70581 56.0215 19.7513 39.7815C30.2347 24.3679 45.7803 13.1543 63.6427 8.04805C65.2318 7.59378 66.2157 5.97859 65.8215 4.37358Z" fill="url(#paint0_linear_0_114)"/>
<defs>
<linearGradient id="paint0_linear_0_114" x1="-2.70392e-07" y1="135.449" x2="170.569" y2="32.8353" gradientUnits="userSpaceOnUse">
<stop stop-color="#7497FF"/>
<stop offset="1" stop-color="#305CDE"/>
</linearGradient>
</defs>
</svg>
