<svg width="42" height="42" viewBox="0 0 42 42" fill="none" xmlns="http://www.w3.org/2000/svg">
<g id="Instagram">
<path id="Vector" d="M14 5.25C9.16825 5.25 5.25 9.16825 5.25 14V28C5.25 32.8317 9.16825 36.75 14 36.75H28C32.8317 36.75 36.75 32.8317 36.75 28V14C36.75 9.16825 32.8317 5.25 28 5.25H14ZM31.5 8.75C32.466 8.75 33.25 9.534 33.25 10.5C33.25 11.466 32.466 12.25 31.5 12.25C30.534 12.25 29.75 11.466 29.75 10.5C29.75 9.534 30.534 8.75 31.5 8.75ZM21 12.25C25.8317 12.25 29.75 16.1683 29.75 21C29.75 25.8317 25.8317 29.75 21 29.75C16.1683 29.75 12.25 25.8317 12.25 21C12.25 16.1683 16.1683 12.25 21 12.25ZM21 15.75C19.6076 15.75 18.2723 16.3031 17.2877 17.2877C16.3031 18.2723 15.75 19.6076 15.75 21C15.75 22.3924 16.3031 23.7277 17.2877 24.7123C18.2723 25.6969 19.6076 26.25 21 26.25C22.3924 26.25 23.7277 25.6969 24.7123 24.7123C25.6969 23.7277 26.25 22.3924 26.25 21C26.25 19.6076 25.6969 18.2723 24.7123 17.2877C23.7277 16.3031 22.3924 15.75 21 15.75Z" fill="white"/>
</g>
</svg>
