<svg width="42" height="42" viewBox="0 0 42 42" fill="none" xmlns="http://www.w3.org/2000/svg">
<g id="LinkedIn">
<path id="Vector" d="M33.25 5.25H8.75C6.81625 5.25 5.25 6.81625 5.25 8.75V33.25C5.25 35.1838 6.81625 36.75 8.75 36.75H33.25C35.1838 36.75 36.75 35.1838 36.75 33.25V8.75C36.75 6.81625 35.1838 5.25 33.25 5.25ZM15.75 29.75H11.3348V17.5H15.75V29.75ZM13.4645 15.2548C12.1152 15.2548 11.214 14.3553 11.214 13.1548C11.214 11.9543 12.1135 11.0547 13.6132 11.0547C14.9625 11.0547 15.8637 11.9543 15.8637 13.1548C15.8637 14.3553 14.9642 15.2548 13.4645 15.2548ZM31.5 29.75H27.2265V23.0545C27.2265 21.203 26.0872 20.776 25.6602 20.776C25.2332 20.776 23.8088 21.0612 23.8088 23.0545C23.8088 23.3398 23.8088 29.75 23.8088 29.75H19.3935V17.5H23.8088V19.2098C24.3775 18.2123 25.5168 17.5 27.6535 17.5C29.7903 17.5 31.5 19.2097 31.5 23.0545V29.75Z" fill="white"/>
</g>
</svg>
