<svg width="162" height="164" viewBox="0 0 162 164" fill="none" xmlns="http://www.w3.org/2000/svg">
<path id="Ellipse 12" d="M99.3421 159.529C99.8798 161.772 102.15 163.155 104.355 162.475C122.093 157.002 137.511 145.446 147.977 129.678C159.228 112.727 163.96 92.1077 161.258 71.7944C158.557 51.481 148.615 32.9107 133.347 19.6616C118.08 6.41251 98.5671 -0.577873 78.5691 0.0373861C58.5711 0.652645 39.5028 8.83001 25.0384 22.9938C10.574 37.1577 1.73698 56.3057 0.230072 76.7486C-1.27682 97.1914 4.65302 117.482 16.877 133.712C28.2481 148.809 44.317 159.398 62.346 163.769C64.5852 164.312 66.7651 162.798 67.1697 160.53C67.5695 158.289 66.084 156.157 63.8745 155.61C47.7852 151.626 33.4524 142.134 23.2893 128.641C12.2877 114.034 6.95085 95.7722 8.30707 77.3737C9.66328 58.9752 17.6166 41.7419 30.6346 28.9945C43.6525 16.247 60.814 8.88738 78.8122 8.33365C96.8104 7.77992 114.372 14.0713 128.113 25.9955C141.854 37.9196 150.802 54.6329 153.233 72.9149C155.664 91.1969 151.406 109.754 141.279 125.011C131.921 139.109 118.164 149.467 102.33 154.431C100.164 155.11 98.8129 157.321 99.3421 159.529Z" fill="url(#paint0_linear_0_109)"/>
<defs>
<linearGradient id="paint0_linear_0_109" x1="162" y1="33.541" x2="-1.66268" y2="129.627" gradientUnits="userSpaceOnUse">
<stop stop-color="#FFD700" stop-opacity="0.41"/>
<stop offset="1" stop-color="#FFD700"/>
</linearGradient>
</defs>
</svg>
