<svg width="54" height="54" viewBox="0 0 54 54" fill="none" xmlns="http://www.w3.org/2000/svg">
<g id="iconoir:quote-solid">
<path id="Vector" fill-rule="evenodd" clip-rule="evenodd" d="M20.7293 28.6875C20.5403 30.429 20.0363 31.8195 19.1588 33.0525C17.982 34.6972 16.0087 36.234 12.7463 37.8675C12.537 37.9595 12.3485 38.0931 12.1924 38.2601C12.0363 38.4272 11.9158 38.6242 11.8382 38.8393C11.7605 39.0543 11.7274 39.2829 11.7408 39.5111C11.7542 39.7394 11.8138 39.9625 11.916 40.167C12.0183 40.3715 12.161 40.5531 12.3356 40.7007C12.5101 40.8484 12.7129 40.959 12.9315 41.0259C13.1501 41.0928 13.38 41.1146 13.6073 41.09C13.8346 41.0653 14.0546 40.9947 14.2537 40.8825C17.7413 39.141 20.268 37.3028 21.9037 35.01C23.571 32.679 24.1875 30.0532 24.1875 27V16.875C24.1875 15.8307 23.7727 14.8292 23.0342 14.0908C22.2958 13.3523 21.2943 12.9375 20.25 12.9375H11.25C10.2057 12.9375 9.20419 13.3523 8.46577 14.0908C7.72734 14.8292 7.3125 15.8307 7.3125 16.875V24.75C7.3125 26.9235 9.0765 28.6875 11.25 28.6875H20.7293ZM43.2292 28.6875C43.0402 30.429 42.5362 31.8195 41.6587 33.0525C40.482 34.6972 38.5088 36.234 35.2463 37.8675C35.037 37.9595 34.8485 38.0931 34.6924 38.2601C34.5363 38.4272 34.4158 38.6242 34.3382 38.8393C34.2605 39.0543 34.2274 39.2829 34.2408 39.5111C34.2542 39.7394 34.3138 39.9625 34.416 40.167C34.5183 40.3715 34.661 40.5531 34.8356 40.7007C35.0101 40.8484 35.2129 40.959 35.4315 41.0259C35.6501 41.0928 35.8801 41.1146 36.1073 41.09C36.3346 41.0653 36.5546 40.9947 36.7537 40.8825C40.2412 39.141 42.768 37.3028 44.4038 35.01C46.071 32.679 46.6875 30.0532 46.6875 27V16.875C46.6875 15.8307 46.2727 14.8292 45.5342 14.0908C44.7958 13.3523 43.7943 12.9375 42.75 12.9375H33.75C32.7057 12.9375 31.7042 13.3523 30.9658 14.0908C30.2273 14.8292 29.8125 15.8307 29.8125 16.875V24.75C29.8125 26.9235 31.5765 28.6875 33.75 28.6875H43.2292Z" fill="white"/>
</g>
</svg>
