<svg width="123" height="119" viewBox="0 0 123 119" fill="none" xmlns="http://www.w3.org/2000/svg">
<path id="Star 1" d="M57.6219 3.34732C58.6394 -0.679411 64.3606 -0.679401 65.3781 3.34733L72.6746 32.2227C73.2853 34.6396 75.9341 35.9152 78.2045 34.8858L105.329 22.5869C109.112 20.8718 112.679 25.3448 110.165 28.6509L92.139 52.3591C90.6301 54.3435 91.2843 57.2097 93.5048 58.3429L120.033 71.8818C123.732 73.7699 122.459 79.3476 118.307 79.4436L88.5316 80.1318C86.0394 80.1894 84.2064 82.4879 84.7048 84.9304L90.6594 114.112C91.4898 118.182 86.3352 120.664 83.6713 117.477L64.5689 94.6274C62.9699 92.7148 60.0301 92.7148 58.4311 94.6274L39.3287 117.477C36.6648 120.664 31.5102 118.182 32.3406 114.112L38.2952 84.9304C38.7936 82.4879 36.9606 80.1894 34.4684 80.1318L4.69336 79.4436C0.541173 79.3476 -0.731898 73.7699 2.96745 71.8818L29.4952 58.3429C31.7157 57.2097 32.3699 54.3435 30.861 52.3591L12.8346 28.6509C10.3208 25.3448 13.8879 20.8718 17.6705 22.5869L44.7955 34.8858C47.0659 35.9152 49.7147 34.6396 50.3254 32.2227L57.6219 3.34732Z" fill="#305CDE"/>
</svg>
