<svg xmlns="http://www.w3.org/2000/svg" width="1920" height="571" viewBox="0 0 1920 571" fill="none">
  <path d="M975.444 570.74C797.804 567.74 648.052 439.863 549.745 342.463C532.471 325.348 514.99 307.59 498.085 290.416C396.762 187.48 291.99 81.0404 154.244 31.8778C-4.74915 -24.8672 -191.545 6.87452 -321.624 112.76L-324.143 109.882C-260.245 57.8672 -181.051 22.6516 -95.1222 8.04838C-9.20417 -6.55703 77.5101 0.459433 155.623 28.3386C294.219 77.8052 399.31 184.565 500.939 287.812C517.836 304.979 535.306 322.729 552.565 339.827C653.577 439.904 809.132 572.334 992.88 566.857C1086.76 564.066 1183.45 526.334 1297.17 448.115C1327.89 426.985 1358.27 404.259 1387.66 382.281C1445.08 339.333 1504.47 294.925 1569.06 260.373C1635.02 225.095 1764.59 171.754 1891.28 210.978C1966.83 234.365 2029.4 287.483 2084.61 334.35L2190.2 423.993L2187.59 426.828L2082.01 337.184C2027.08 290.562 1964.84 237.716 1890.06 214.569C1764.78 175.783 1636.36 228.687 1570.95 263.671C1506.62 298.08 1447.36 342.398 1390.05 385.256C1360.63 407.257 1330.22 430.008 1299.44 451.179C1185.06 529.857 1087.68 567.814 992.981 570.63C987.11 570.803 981.258 570.838 975.444 570.74Z" fill="#305CDE"/>
</svg>