<svg width="42" height="42" viewBox="0 0 42 42" fill="none" xmlns="http://www.w3.org/2000/svg">
<g id="WhatsApp">
<path id="Vector" d="M33.3848 8.624C30.0842 5.32175 25.6952 3.50175 21.0192 3.5C11.3837 3.5 3.542 11.3382 3.5385 20.9737C3.53675 24.0537 4.34175 27.0602 5.87125 29.7097L3.5 38.5L12.6577 36.3353C15.211 37.7283 18.0845 38.4615 21.0105 38.4632H21.0175C30.6513 38.4632 38.493 30.6233 38.4983 20.9895C38.5018 16.3188 36.6852 11.928 33.3848 8.624ZM29.5715 27.2195C29.2075 28.2397 27.4242 29.2232 26.6228 29.295C25.8213 29.3685 25.0705 29.6572 21.3815 28.203C16.9418 26.453 14.1382 21.9013 13.9212 21.6108C13.7025 21.3185 12.138 19.243 12.138 17.094C12.138 14.945 13.2668 13.888 13.6675 13.4522C14.0682 13.0147 14.5407 12.9062 14.833 12.9062C15.1235 12.9062 15.4158 12.9062 15.6695 12.9167C15.981 12.929 16.3257 12.9447 16.653 13.671C17.0415 14.5355 17.8903 16.695 17.9987 16.9137C18.1072 17.1325 18.1807 17.388 18.0355 17.6785C17.8902 17.969 17.8168 18.151 17.5998 18.4065C17.381 18.662 17.1412 18.9753 16.9452 19.1712C16.7265 19.3882 16.499 19.6262 16.7528 20.062C17.0083 20.4995 17.8833 21.9293 19.1818 23.086C20.8513 24.5735 22.2565 25.0337 22.694 25.2542C23.1315 25.473 23.3853 25.4363 23.6407 25.144C23.8962 24.8535 24.7327 23.87 25.0233 23.4325C25.3137 22.995 25.606 23.0685 26.0068 23.2138C26.4075 23.359 28.5548 24.416 28.9905 24.6348C29.428 24.8535 29.7185 24.962 29.827 25.144C29.9355 25.3242 29.9355 26.1992 29.5715 27.2195Z" fill="white"/>
</g>
</svg>
