<svg width="77" height="153" viewBox="0 0 77 153" fill="none" xmlns="http://www.w3.org/2000/svg">
<path id="Ellipse 11" d="M58.8948 3.84726C58.5414 2.39873 57.0766 1.50816 55.6427 1.91711C38.3858 6.83888 23.3637 17.7203 13.2443 32.6959C2.61764 48.4222 -1.85065 67.5507 0.700392 86.3956C3.25144 105.241 12.6413 122.468 27.0607 134.76C41.4802 147.051 59.9088 153.536 78.7959 152.965C97.6829 152.395 115.692 144.808 129.353 131.668C143.013 118.528 151.36 100.765 152.783 81.7995C154.206 62.8345 148.605 44.0104 137.061 28.9541C126.067 14.6162 110.423 4.66147 92.903 0.790817C91.4475 0.469269 90.0394 1.44568 89.7731 2.91222C89.5076 4.37396 90.4773 5.76965 91.9271 6.09378C108.151 9.72055 122.633 18.9602 132.821 32.2473C143.558 46.2496 148.766 63.7561 147.443 81.3936C146.119 99.031 138.358 115.551 125.653 127.772C112.948 139.992 96.2001 147.047 78.6351 147.578C61.0702 148.109 43.9316 142.077 30.5215 130.647C17.1114 119.216 8.37883 103.194 6.00636 85.6679C3.63389 68.1421 7.7894 50.3527 17.6722 35.7272C27.0508 21.848 40.9573 11.7501 56.9366 7.15053C58.3633 6.73984 59.2468 5.28963 58.8948 3.84726Z" fill="url(#paint0_linear_0_110)"/>
<defs>
<linearGradient id="paint0_linear_0_110" x1="-2.4193e-07" y1="121.884" x2="153.141" y2="30.3529" gradientUnits="userSpaceOnUse">
<stop stop-color="#7497FF"/>
<stop offset="1" stop-color="#305CDE"/>
</linearGradient>
</defs>
</svg>
