<svg width="139" height="217" viewBox="0 0 139 217" fill="none" xmlns="http://www.w3.org/2000/svg">
<path id="Ellipse 10" d="M6.47124 84.2355C3.54227 83.5211 1.73741 80.5578 2.60864 77.6716C9.77866 53.9187 24.9689 33.2707 45.7064 19.2628C67.9632 4.2287 95.0349 -2.09282 121.705 1.51627C148.376 5.12536 172.758 18.4097 190.153 38.8096C207.548 59.2095 216.726 85.2814 215.919 112.002C215.111 138.722 204.374 164.2 185.778 183.527C167.181 202.854 142.041 214.661 115.201 216.675C88.3603 218.688 61.7192 210.765 40.4108 194.432C20.5562 179.213 6.64043 157.696 0.918533 133.558C0.223389 130.626 2.20187 127.778 5.16716 127.239C8.12227 126.703 10.9388 128.665 11.6472 131.583C16.8704 153.102 29.3386 172.274 47.069 185.864C66.2466 200.564 90.2235 207.695 114.38 205.883C138.536 204.071 161.163 193.444 177.899 176.05C194.636 158.656 204.299 135.725 205.026 111.677C205.753 87.6287 197.493 64.1639 181.837 45.804C166.181 27.4441 144.237 15.4882 120.234 12.24C96.2307 8.99185 71.8661 14.6812 51.8351 28.2119C33.3139 40.7226 19.7093 59.1185 13.1963 80.2902C12.3138 83.1588 9.38707 84.9467 6.47124 84.2355Z" fill="url(#paint0_linear_0_11)"/>
<defs>
<linearGradient id="paint0_linear_0_11" x1="171.93" y1="0.52539" x2="42.4589" y2="217.223" gradientUnits="userSpaceOnUse">
<stop stop-color="#7497FF"/>
<stop offset="1" stop-color="#305CDE"/>
</linearGradient>
</defs>
</svg>
