<svg width="74" height="74" viewBox="0 0 74 74" fill="none" xmlns="http://www.w3.org/2000/svg">
<g id="Group 1000001867">
<path id="Ellipse 20" d="M60.9642 43.6591C61.6704 43.8258 62.1056 44.5408 61.8881 45.2329C60.1706 50.6973 56.5539 55.4465 51.6222 58.6718C46.312 62.1446 39.853 63.6048 33.4898 62.7711C27.1266 61.9374 21.3094 58.8689 17.1591 54.1566C13.0087 49.4444 10.819 43.422 11.0117 37.2497C11.2044 31.0775 13.766 25.1922 18.2029 20.7279C22.6398 16.2636 28.6379 13.5361 35.0417 13.071C41.4455 12.6059 47.8017 14.4361 52.8856 18.209C57.608 21.7135 60.9223 26.6639 62.2953 32.2186C62.469 32.9216 61.9928 33.6072 61.2797 33.7326C60.5804 33.8555 59.916 33.3925 59.7426 32.704C58.493 27.7424 55.5209 23.3226 51.2971 20.1881C46.7215 16.7925 41.0009 15.1453 35.2375 15.5639C29.4741 15.9825 24.0758 18.4372 20.0826 22.4551C16.0894 26.473 13.784 31.7697 13.6105 37.3248C13.4371 42.8798 15.4079 48.3 19.1432 52.541C22.8784 56.782 28.1139 59.5437 33.8408 60.294C39.5677 61.0443 45.3808 59.7301 50.1599 56.6046C54.5741 53.7178 57.8178 49.4745 59.3737 44.5906C59.5883 43.9169 60.2761 43.4966 60.9642 43.6591Z" fill="url(#paint0_linear_0_111)"/>
<path id="Ellipse 21" d="M28.4842 2.32541C28.3136 1.63084 27.6113 1.20387 26.9231 1.39864C18.572 3.76218 11.3022 8.99232 6.40575 16.1915C1.26605 23.7483 -0.895086 32.9399 0.338752 41.9953C1.57259 51.0506 6.11409 59.329 13.0882 65.2352C20.0623 71.1414 28.9755 74.2576 38.1104 73.9833C47.2453 73.7091 55.9555 70.0637 62.5627 63.7497C69.1699 57.4357 73.2066 48.8998 73.8949 39.7868C74.5832 30.6737 71.8745 21.6283 66.2907 14.3935C60.9711 7.50104 53.4007 2.71646 44.9229 0.8582C44.2242 0.70507 43.5488 1.17341 43.4202 1.87696C43.2916 2.58051 43.7585 3.25268 44.4568 3.40765C52.3053 5.14965 59.3117 9.58996 64.2404 15.976C69.4333 22.7044 71.9524 31.1166 71.3123 39.5917C70.6721 48.0669 66.918 56.0052 60.7733 61.8772C54.6286 67.7493 46.5281 71.1394 38.0327 71.3945C29.5372 71.6496 21.2479 68.7515 14.762 63.2587C8.27611 57.7659 4.05251 50.0671 2.90504 41.6456C1.75757 33.2241 3.76743 24.676 8.54734 17.6481C13.084 10.9779 19.8114 6.12527 27.5413 3.91553C28.229 3.71895 28.6547 3.01997 28.4842 2.32541Z" fill="url(#paint1_linear_0_111)"/>
</g>
<defs>
<linearGradient id="paint0_linear_0_111" x1="21.5068" y1="63" x2="50.947" y2="12.1056" gradientUnits="userSpaceOnUse">
<stop stop-color="#7497FF"/>
<stop offset="1" stop-color="#305CDE"/>
</linearGradient>
<linearGradient id="paint1_linear_0_111" x1="-1.17012e-07" y1="59.048" x2="73.8136" y2="14.6422" gradientUnits="userSpaceOnUse">
<stop stop-color="#7497FF"/>
<stop offset="1" stop-color="#305CDE"/>
</linearGradient>
</defs>
</svg>
