<svg width="233" height="110" viewBox="0 0 233 110" fill="none" xmlns="http://www.w3.org/2000/svg">
<g id="Group">
<g id="Group_2">
<path id="Vector" d="M228.335 102.847C226.457 103.177 225.215 104.894 225.562 106.683C225.909 108.471 227.712 109.653 229.59 109.323C231.469 108.993 232.71 107.276 232.364 105.488C232.017 103.699 230.214 102.517 228.335 102.847Z" fill="#305CDE"/>
<path id="Vector_2" d="M228.335 77.3566C226.457 77.6867 225.215 79.4037 225.562 81.1922C225.909 82.9806 227.712 84.1629 229.59 83.8328C231.469 83.5027 232.71 81.7857 232.364 79.9972C232.017 78.2104 230.214 77.0281 228.335 77.3566Z" fill="#305CDE"/>
<path id="Vector_3" d="M228.335 51.8673C226.457 52.1974 225.215 53.9145 225.562 55.7029C225.909 57.4914 227.712 58.6736 229.59 58.3435C231.469 58.0135 232.71 56.2964 232.364 54.508C232.017 52.7195 230.214 51.5373 228.335 51.8673Z" fill="#305CDE"/>
<path id="Vector_4" d="M228.335 26.3778C226.457 26.7079 225.215 28.4249 225.562 30.2134C225.909 32.0019 227.712 33.1841 229.59 32.854C231.469 32.524 232.71 30.8069 232.364 29.0185C232.017 27.23 230.214 26.0478 228.335 26.3778Z" fill="#305CDE"/>
<path id="Vector_5" d="M228.335 0.889462C226.457 1.21954 225.215 2.93667 225.562 4.72512C225.909 6.51357 227.712 7.69583 229.59 7.36575C231.469 7.03567 232.71 5.31854 232.364 3.53009C232.017 1.74164 230.214 0.559384 228.335 0.889462Z" fill="#305CDE"/>
</g>
<g id="Group_3">
<path id="Vector_6" d="M205.785 102.847C203.907 103.177 202.665 104.894 203.012 106.683C203.358 108.471 205.162 109.653 207.04 109.323C208.918 108.993 210.16 107.276 209.813 105.488C209.467 103.699 207.663 102.517 205.785 102.847Z" fill="#305CDE"/>
<path id="Vector_7" d="M205.785 77.3566C203.907 77.6867 202.665 79.4037 203.012 81.1922C203.358 82.9806 205.162 84.1629 207.04 83.8328C208.918 83.5027 210.16 81.7857 209.813 79.9972C209.467 78.2104 207.663 77.0281 205.785 77.3566Z" fill="#305CDE"/>
<path id="Vector_8" d="M205.785 51.8673C203.907 52.1974 202.665 53.9145 203.012 55.7029C203.358 57.4914 205.162 58.6736 207.04 58.3435C208.919 58.0135 210.16 56.2964 209.813 54.508C209.467 52.7195 207.663 51.5373 205.785 51.8673Z" fill="#305CDE"/>
<path id="Vector_9" d="M205.785 26.3778C203.907 26.7079 202.665 28.4249 203.012 30.2134C203.358 32.0019 205.162 33.1841 207.04 32.854C208.918 32.524 210.16 30.8069 209.813 29.0185C209.467 27.23 207.663 26.0478 205.785 26.3778Z" fill="#305CDE"/>
<path id="Vector_10" d="M205.785 0.889462C203.907 1.21954 202.665 2.93667 203.012 4.72512C203.358 6.51357 205.162 7.69583 207.04 7.36575C208.918 7.03567 210.16 5.31854 209.813 3.53009C209.467 1.74164 207.663 0.559384 205.785 0.889462Z" fill="#305CDE"/>
</g>
<g id="Group_4">
<path id="Vector_11" d="M183.236 102.847C181.358 103.177 180.116 104.894 180.463 106.683C180.809 108.471 182.613 109.653 184.491 109.323C186.369 108.993 187.611 107.276 187.264 105.488C186.916 103.699 185.113 102.517 183.236 102.847Z" fill="#305CDE"/>
<path id="Vector_12" d="M183.236 77.3566C181.358 77.6867 180.116 79.4037 180.463 81.1922C180.809 82.9806 182.613 84.1629 184.491 83.8328C186.369 83.5027 187.611 81.7857 187.264 79.9972C186.916 78.2104 185.113 77.0281 183.236 77.3566Z" fill="#305CDE"/>
<path id="Vector_13" d="M183.236 51.8673C181.358 52.1974 180.116 53.9145 180.463 55.7029C180.809 57.4914 182.613 58.6736 184.491 58.3435C186.369 58.0135 187.611 56.2964 187.264 54.508C186.916 52.7195 185.113 51.5373 183.236 51.8673Z" fill="#305CDE"/>
<path id="Vector_14" d="M183.236 26.3778C181.358 26.7079 180.116 28.4249 180.463 30.2134C180.809 32.0019 182.613 33.1841 184.491 32.854C186.369 32.524 187.611 30.8069 187.264 29.0185C186.916 27.23 185.113 26.0478 183.236 26.3778Z" fill="#305CDE"/>
<path id="Vector_15" d="M183.236 0.889462C181.358 1.21954 180.116 2.93667 180.463 4.72512C180.809 6.51357 182.613 7.69583 184.491 7.36575C186.369 7.03567 187.611 5.31854 187.264 3.53009C186.916 1.74164 185.113 0.559384 183.236 0.889462Z" fill="#305CDE"/>
</g>
<g id="Group_5">
<path id="Vector_16" d="M160.683 102.847C158.805 103.177 157.563 104.894 157.91 106.683C158.257 108.471 160.06 109.653 161.938 109.323C163.817 108.993 165.058 107.276 164.712 105.488C164.365 103.699 162.562 102.517 160.683 102.847Z" fill="#305CDE"/>
<path id="Vector_17" d="M160.683 77.3566C158.805 77.6867 157.563 79.4037 157.91 81.1922C158.257 82.9806 160.06 84.1629 161.938 83.8328C163.817 83.5027 165.058 81.7857 164.712 79.9972C164.365 78.2104 162.562 77.0281 160.683 77.3566Z" fill="#305CDE"/>
<path id="Vector_18" d="M160.683 51.8673C158.805 52.1974 157.563 53.9145 157.91 55.7029C158.257 57.4914 160.06 58.6736 161.938 58.3435C163.817 58.0135 165.058 56.2964 164.712 54.508C164.365 52.7195 162.562 51.5373 160.683 51.8673Z" fill="#305CDE"/>
<path id="Vector_19" d="M160.683 26.3778C158.805 26.7079 157.563 28.4249 157.91 30.2134C158.257 32.0019 160.06 33.1841 161.938 32.854C163.817 32.524 165.058 30.8069 164.712 29.0185C164.365 27.23 162.562 26.0478 160.683 26.3778Z" fill="#305CDE"/>
<path id="Vector_20" d="M160.683 0.889462C158.805 1.21954 157.563 2.93667 157.91 4.72512C158.257 6.51357 160.06 7.69583 161.938 7.36575C163.817 7.03567 165.058 5.31854 164.712 3.53009C164.365 1.74164 162.562 0.559384 160.683 0.889462Z" fill="#305CDE"/>
</g>
<g id="Group_6">
<path id="Vector_21" d="M138.133 102.847C136.255 103.177 135.013 104.894 135.36 106.683C135.706 108.471 137.51 109.653 139.388 109.323C141.267 108.993 142.508 107.276 142.162 105.488C141.815 103.699 140.012 102.517 138.133 102.847Z" fill="#305CDE"/>
<path id="Vector_22" d="M138.133 77.3566C136.255 77.6867 135.013 79.4037 135.36 81.1922C135.706 82.9806 137.51 84.1629 139.388 83.8328C141.267 83.5027 142.508 81.7857 142.162 79.9972C141.815 78.2104 140.012 77.0281 138.133 77.3566Z" fill="#305CDE"/>
<path id="Vector_23" d="M138.133 51.8673C136.255 52.1974 135.013 53.9145 135.36 55.7029C135.706 57.4914 137.51 58.6736 139.388 58.3435C141.266 58.0135 142.508 56.2964 142.161 54.508C141.815 52.7195 140.011 51.5373 138.133 51.8673Z" fill="#305CDE"/>
<path id="Vector_24" d="M138.133 26.3778C136.255 26.7079 135.013 28.4249 135.36 30.2134C135.706 32.0019 137.51 33.1841 139.388 32.854C141.267 32.524 142.508 30.8069 142.162 29.0185C141.815 27.23 140.012 26.0478 138.133 26.3778Z" fill="#305CDE"/>
<path id="Vector_25" d="M138.133 0.889462C136.255 1.21954 135.013 2.93667 135.36 4.72512C135.706 6.51357 137.51 7.69583 139.388 7.36575C141.267 7.03567 142.508 5.31854 142.162 3.53009C141.815 1.74164 140.012 0.559384 138.133 0.889462Z" fill="#305CDE"/>
</g>
<g id="Group_7">
<path id="Vector_26" d="M115.583 102.847C113.704 103.177 112.463 104.894 112.809 106.683C113.156 108.471 114.959 109.653 116.838 109.323C118.716 108.993 119.958 107.276 119.611 105.488C119.264 103.699 117.461 102.517 115.583 102.847Z" fill="#305CDE"/>
<path id="Vector_27" d="M115.583 77.3566C113.704 77.6867 112.463 79.4037 112.809 81.1922C113.156 82.9806 114.959 84.1629 116.838 83.8328C118.716 83.5027 119.958 81.7857 119.611 79.9972C119.264 78.2104 117.461 77.0281 115.583 77.3566Z" fill="#305CDE"/>
<path id="Vector_28" d="M115.583 51.8673C113.704 52.1974 112.463 53.9145 112.809 55.7029C113.156 57.4914 114.959 58.6736 116.838 58.3435C118.716 58.0135 119.958 56.2964 119.611 54.508C119.264 52.7195 117.461 51.5373 115.583 51.8673Z" fill="#305CDE"/>
<path id="Vector_29" d="M115.583 26.3778C113.704 26.7079 112.463 28.4249 112.809 30.2134C113.156 32.0019 114.959 33.1841 116.838 32.854C118.716 32.524 119.958 30.8069 119.611 29.0185C119.264 27.23 117.461 26.0478 115.583 26.3778Z" fill="#305CDE"/>
<path id="Vector_30" d="M115.583 0.889462C113.704 1.21954 112.463 2.93667 112.809 4.72512C113.156 6.51357 114.959 7.69583 116.838 7.36575C118.716 7.03567 119.958 5.31854 119.611 3.53009C119.264 1.74164 117.461 0.559384 115.583 0.889462Z" fill="#305CDE"/>
</g>
<g id="Group_8">
<path id="Vector_31" d="M93.0337 102.847C91.1553 103.177 89.9137 104.894 90.2603 106.683C90.607 108.471 92.4104 109.653 94.2887 109.323C96.1671 108.993 97.4087 107.276 97.0621 105.488C96.7154 103.699 94.912 102.517 93.0337 102.847Z" fill="#305CDE"/>
<path id="Vector_32" d="M93.0337 77.3566C91.1553 77.6867 89.9137 79.4037 90.2603 81.1922C90.607 82.9806 92.4104 84.1629 94.2887 83.8328C96.1671 83.5027 97.4087 81.7857 97.0621 79.9972C96.7154 78.2104 94.912 77.0281 93.0337 77.3566Z" fill="#305CDE"/>
<path id="Vector_33" d="M93.0337 51.8673C91.1553 52.1974 89.9137 53.9145 90.2603 55.7029C90.607 57.4914 92.4104 58.6736 94.2887 58.3435C96.1671 58.0135 97.4087 56.2964 97.0621 54.508C96.7154 52.7195 94.912 51.5373 93.0337 51.8673Z" fill="#305CDE"/>
<path id="Vector_34" d="M93.0337 26.3778C91.1553 26.7079 89.9137 28.4249 90.2603 30.2134C90.607 32.0019 92.4104 33.1841 94.2887 32.854C96.1671 32.524 97.4087 30.8069 97.0621 29.0185C96.7154 27.23 94.912 26.0478 93.0337 26.3778Z" fill="#305CDE"/>
<path id="Vector_35" d="M93.0337 0.889462C91.1553 1.21954 89.9137 2.93667 90.2603 4.72512C90.607 6.51357 92.4104 7.69583 94.2887 7.36575C96.1671 7.03567 97.4087 5.31854 97.0621 3.53009C96.7154 1.74164 94.912 0.559384 93.0337 0.889462Z" fill="#305CDE"/>
</g>
<g id="Group_9">
<path id="Vector_36" d="M70.4832 102.847C68.6048 103.177 67.3632 104.894 67.7098 106.683C68.0565 108.471 69.8599 109.653 71.7382 109.323C73.6166 108.993 74.8582 107.276 74.5115 105.488C74.1632 103.699 72.3599 102.517 70.4832 102.847Z" fill="#305CDE"/>
<path id="Vector_37" d="M70.4832 77.3566C68.6048 77.6867 67.3632 79.4037 67.7098 81.1922C68.0565 82.9806 69.8599 84.1629 71.7382 83.8328C73.6166 83.5027 74.8582 81.7857 74.5115 79.9972C74.1632 78.2104 72.3599 77.0281 70.4832 77.3566Z" fill="#305CDE"/>
<path id="Vector_38" d="M70.4834 51.8673C68.6051 52.1974 67.3634 53.9145 67.7101 55.7029C68.0567 57.4914 69.8601 58.6736 71.7384 58.3435C73.6168 58.0135 74.8584 56.2964 74.5117 54.508C74.1634 52.7195 72.3601 51.5373 70.4834 51.8673Z" fill="#305CDE"/>
<path id="Vector_39" d="M70.4832 26.3778C68.6048 26.7079 67.3632 28.4249 67.7098 30.2134C68.0565 32.0019 69.8599 33.1841 71.7382 32.854C73.6166 32.524 74.8582 30.8069 74.5115 29.0185C74.1632 27.23 72.3599 26.0478 70.4832 26.3778Z" fill="#305CDE"/>
<path id="Vector_40" d="M70.4832 0.889462C68.6048 1.21954 67.3632 2.93667 67.7098 4.72512C68.0565 6.51357 69.8599 7.69583 71.7382 7.36575C73.6166 7.03567 74.8582 5.31854 74.5115 3.53009C74.1632 1.74164 72.3599 0.559384 70.4832 0.889462Z" fill="#305CDE"/>
</g>
<g id="Group_10">
<path id="Vector_41" d="M47.9309 102.847C46.0526 103.177 44.8109 104.894 45.1576 106.683C45.5042 108.471 47.3076 109.653 49.186 109.323C51.0643 108.993 52.306 107.276 51.9593 105.488C51.6126 103.699 49.8093 102.517 47.9309 102.847Z" fill="#305CDE"/>
<path id="Vector_42" d="M47.9309 77.3566C46.0526 77.6867 44.8109 79.4037 45.1576 81.1922C45.5042 82.9806 47.3076 84.1629 49.186 83.8328C51.0643 83.5027 52.306 81.7857 51.9593 79.9972C51.6126 78.2104 49.8093 77.0281 47.9309 77.3566Z" fill="#305CDE"/>
<path id="Vector_43" d="M47.9307 51.8673C46.0524 52.1974 44.8107 53.9145 45.1574 55.7029C45.504 57.4914 47.3074 58.6736 49.1858 58.3435C51.0641 58.0135 52.3058 56.2964 51.9591 54.508C51.6124 52.7195 49.8091 51.5373 47.9307 51.8673Z" fill="#305CDE"/>
<path id="Vector_44" d="M47.9309 26.3778C46.0526 26.7079 44.8109 28.4249 45.1576 30.2134C45.5042 32.0019 47.3076 33.1841 49.186 32.854C51.0643 32.524 52.306 30.8069 51.9593 29.0185C51.6126 27.23 49.8093 26.0478 47.9309 26.3778Z" fill="#305CDE"/>
<path id="Vector_45" d="M47.9309 0.889462C46.0526 1.21954 44.8109 2.93667 45.1576 4.72512C45.5042 6.51357 47.3076 7.69583 49.186 7.36575C51.0643 7.03567 52.306 5.31854 51.9593 3.53009C51.6126 1.74164 49.8093 0.559384 47.9309 0.889462Z" fill="#305CDE"/>
</g>
<g id="Group_11">
<path id="Vector_46" d="M25.3804 102.847C23.502 103.177 22.2604 104.894 22.607 106.683C22.9537 108.471 24.7571 109.653 26.6354 109.323C28.5138 108.993 29.7554 107.276 29.4088 105.488C29.0621 103.699 27.2587 102.517 25.3804 102.847Z" fill="#305CDE"/>
<path id="Vector_47" d="M25.3804 77.3566C23.502 77.6867 22.2604 79.4037 22.607 81.1922C22.9537 82.9806 24.7571 84.1629 26.6354 83.8328C28.5138 83.5027 29.7554 81.7857 29.4088 79.9972C29.0621 78.2104 27.2587 77.0281 25.3804 77.3566Z" fill="#305CDE"/>
<path id="Vector_48" d="M25.3804 51.8673C23.502 52.1974 22.2604 53.9145 22.607 55.7029C22.9537 57.4914 24.7571 58.6736 26.6354 58.3435C28.5138 58.0135 29.7554 56.2964 29.4088 54.508C29.0621 52.7195 27.2587 51.5373 25.3804 51.8673Z" fill="#305CDE"/>
<path id="Vector_49" d="M25.3804 26.3778C23.502 26.7079 22.2604 28.4249 22.607 30.2134C22.9537 32.0019 24.7571 33.1841 26.6354 32.854C28.5138 32.524 29.7554 30.8069 29.4088 29.0185C29.0621 27.23 27.2587 26.0478 25.3804 26.3778Z" fill="#305CDE"/>
<path id="Vector_50" d="M25.3804 0.889462C23.502 1.21954 22.2604 2.93667 22.607 4.72512C22.9537 6.51357 24.7571 7.69583 26.6354 7.36575C28.5138 7.03567 29.7554 5.31854 29.4088 3.53009C29.0621 1.74164 27.2587 0.559384 25.3804 0.889462Z" fill="#305CDE"/>
</g>
<g id="Group_12">
<path id="Vector_51" d="M2.83142 102.847C0.95308 103.177 -0.288595 104.894 0.0580735 106.683C0.404742 108.471 2.20812 109.653 4.08646 109.323C5.96481 108.993 7.20648 107.276 6.85981 105.488C6.51314 103.699 4.70976 102.517 2.83142 102.847Z" fill="#305CDE"/>
<path id="Vector_52" d="M2.83142 77.3566C0.95308 77.6867 -0.288595 79.4037 0.0580735 81.1922C0.404742 82.9806 2.20812 84.1629 4.08646 83.8328C5.96481 83.5027 7.20648 81.7857 6.85981 79.9972C6.51314 78.2104 4.70976 77.0281 2.83142 77.3566Z" fill="#305CDE"/>
<path id="Vector_53" d="M2.83132 51.8673C0.952973 52.1974 -0.288702 53.9145 0.0579667 55.7029C0.404635 57.4914 2.20801 58.6736 4.08636 58.3435C5.9647 58.0135 7.20637 56.2964 6.85971 54.508C6.51304 52.7195 4.70966 51.5373 2.83132 51.8673Z" fill="#305CDE"/>
<path id="Vector_54" d="M2.83142 26.3778C0.95308 26.7079 -0.288595 28.4249 0.0580735 30.2134C0.404742 32.0019 2.20812 33.1841 4.08646 32.854C5.96481 32.524 7.20648 30.8069 6.85981 29.0185C6.51314 27.23 4.70976 26.0478 2.83142 26.3778Z" fill="#305CDE"/>
<path id="Vector_55" d="M2.83142 0.889462C0.95308 1.21954 -0.288595 2.93667 0.0580735 4.72512C0.404742 6.51357 2.20812 7.69583 4.08646 7.36575C5.96481 7.03567 7.20648 5.31854 6.85981 3.53009C6.51314 1.74164 4.70976 0.559384 2.83142 0.889462Z" fill="#305CDE"/>
</g>
</g>
</svg>
