<svg width="42" height="42" viewBox="0 0 42 42" fill="none" xmlns="http://www.w3.org/2000/svg">
<g id="YouTube">
<path id="Vector" d="M37.7685 10.8255C37.366 9.3205 36.1795 8.134 34.6745 7.7315C31.9445 7 21 7 21 7C21 7 10.0555 7 7.3255 7.7315C5.8205 8.134 4.634 9.3205 4.2315 10.8255C3.5 13.5555 3.5 21 3.5 21C3.5 21 3.5 28.4445 4.2315 31.1745C4.634 32.6795 5.8205 33.866 7.3255 34.2685C10.0555 35 21 35 21 35C21 35 31.9445 35 34.6745 34.2685C36.1812 33.866 37.366 32.6795 37.7685 31.1745C38.5 28.4445 38.5 21 38.5 21C38.5 21 38.5 13.5555 37.7685 10.8255ZM17.5 27.062V14.938L28 21L17.5 27.062Z" fill="white"/>
</g>
</svg>
