<svg width="92" height="94" viewBox="0 0 92 94" fill="none" xmlns="http://www.w3.org/2000/svg">
<path id="Ellipse 14" d="M56.4145 2.71155C56.7207 1.42445 58.0236 0.631073 59.2867 1.02454C69.3504 4.15946 78.0973 10.77 84.0361 19.7864C90.426 29.4877 93.1128 41.2878 91.5788 52.9129C90.0449 64.538 84.3987 75.1656 75.7282 82.7479C67.0577 90.3302 55.9764 94.3307 44.6195 93.9786C33.2626 93.6265 22.4337 88.9467 14.2193 80.8409C6.00499 72.7351 0.986435 61.7768 0.130661 50.0776C-0.725113 38.3784 2.64246 26.7661 9.58449 17.4782C16.0373 8.84474 25.1542 2.78748 35.3836 0.282303C36.6665 -0.0318756 37.9167 0.836433 38.1469 2.13702C38.3735 3.41689 37.5256 4.63377 36.2645 4.94876C27.1314 7.23021 18.9956 12.6611 13.226 20.3804C6.97821 28.7395 3.9474 39.1906 4.7176 49.7199C5.48779 60.2491 10.0045 70.1116 17.3974 77.4068C24.7903 84.702 34.5363 88.9138 44.7575 89.2307C54.9788 89.5476 64.9519 85.9472 72.7554 79.1231C80.5588 72.299 85.6404 62.7342 87.021 52.2716C88.4015 41.809 85.9834 31.189 80.2325 22.4578C74.9195 14.3916 67.1094 8.46474 58.1204 5.62304C56.8852 5.23255 56.1148 3.97186 56.4145 2.71155Z" fill="url(#paint0_linear_0_106)"/>
<defs>
<linearGradient id="paint0_linear_0_106" x1="92" y1="74.8049" x2="-1.30961" y2="20.443" gradientUnits="userSpaceOnUse">
<stop stop-color="#FFD700" stop-opacity="0.41"/>
<stop offset="1" stop-color="#FFD700"/>
</linearGradient>
</defs>
</svg>
