<svg width="234" height="234" viewBox="0 0 234 234" fill="none" xmlns="http://www.w3.org/2000/svg">
<path id="Ellipse 13" d="M5.43198 90.0754C3.21071 89.5345 1.84502 87.2881 2.4734 85.09C10.0173 58.7015 26.6913 35.7307 49.6379 20.256C73.738 4.00345 103.052 -2.83041 131.931 1.07119C160.81 4.97278 187.211 19.3338 206.047 41.387C224.883 63.4403 234.822 91.6253 233.947 120.511C233.072 149.397 221.446 176.94 201.31 197.833C181.173 218.726 153.951 231.491 124.888 233.668C95.8243 235.844 66.9769 227.279 43.9037 209.622C21.9342 192.81 6.67995 168.888 0.746658 142.097C0.252533 139.866 1.74968 137.707 3.99821 137.299C6.23718 136.894 8.37454 138.379 8.87201 140.599C14.4306 165.41 28.5895 187.557 48.9504 203.139C70.4085 219.559 97.2366 227.525 124.265 225.501C151.294 223.477 176.611 211.606 195.338 192.175C214.065 172.745 224.877 147.13 225.691 120.266C226.504 93.4015 217.262 67.1894 199.744 46.6799C182.226 26.1704 157.673 12.8147 130.816 9.18621C103.958 5.55772 76.6963 11.9132 54.2833 27.0281C33.0147 41.3711 17.5405 62.6388 10.4913 87.0762C9.86125 89.2606 7.6409 90.6133 5.43198 90.0754Z" fill="url(#paint0_linear_0_115)"/>
<defs>
<linearGradient id="paint0_linear_0_115" x1="186.315" y1="-3.7001e-07" x2="46.4596" y2="234.462" gradientUnits="userSpaceOnUse">
<stop stop-color="#FFD700" stop-opacity="0.41"/>
<stop offset="1" stop-color="#FFD700"/>
</linearGradient>
</defs>
</svg>
