<svg width="114" height="48" viewBox="0 0 114 48" fill="none" xmlns="http://www.w3.org/2000/svg">
<g id="Group">
<g id="Group_2">
<g id="Group_3">
<path id="Vector" d="M50.9388 37.4581C50.0594 37.4581 49.1801 37.2787 48.3636 36.9198L30.2743 29.2636C27.0082 27.8879 25.5636 24.299 27.0082 21.1887L35.0479 4.02201C36.4925 0.971486 40.2611 -0.464055 43.5272 0.911671L61.6164 8.56789C64.8198 9.94362 66.3272 13.5325 64.8826 16.6428L56.7801 33.8693C55.7123 36.1422 53.3883 37.4581 50.9388 37.4581ZM49.8082 33.6899C51.19 34.288 52.7603 33.6899 53.3883 32.3739L61.428 15.1475C62.0561 13.8315 61.428 12.3362 60.0462 11.738L42.0198 4.14164C40.6379 3.5435 39.0677 4.14164 38.4396 5.45755L30.3999 22.6242C29.7718 23.9401 30.3999 25.4355 31.7817 26.0336L49.8082 33.6899Z" fill="#089949"/>
</g>
<g id="Group_4">
<path id="Vector_2" d="M107.593 37.4579H87.808C84.2906 37.4579 81.4014 34.7064 81.4014 31.3568V12.5154C81.4014 9.16576 84.2906 6.41431 87.808 6.41431H107.593C111.11 6.41431 114 9.16576 114 12.5154V31.3568C114 34.7064 111.11 37.4579 107.593 37.4579ZM87.808 9.94334C86.3005 9.94334 85.1071 11.0798 85.1071 12.5154V31.3568C85.1071 32.7924 86.3005 33.9288 87.808 33.9288H107.593C109.101 33.9288 110.294 32.7924 110.294 31.3568V12.5154C110.294 11.0798 109.101 9.94334 107.593 9.94334H87.808Z" fill="#F9B21D"/>
</g>
<path id="Vector_3" d="M33.4776 15.9849L30.8396 21.6672C30.7768 21.727 30.7768 21.7868 30.714 21.8467L31.7817 27.9477C32.033 29.3832 31.028 30.6992 29.5206 30.8786L9.98669 33.8693C9.29578 33.9889 8.54206 33.8095 7.97677 33.3908C7.41148 32.9721 7.03462 32.374 6.909 31.716L3.76851 13.1138C3.64289 12.4558 3.83132 11.7381 4.27099 11.1997C4.71066 10.6614 5.33876 10.3025 6.02967 10.1829L25.5635 7.19217C25.6892 7.19217 25.8776 7.13236 26.0032 7.13236C27.3222 7.13236 28.4528 8.02957 28.704 9.28567L29.7718 15.4465L32.5354 9.58474L32.4098 8.74734C31.8445 5.39775 28.5784 3.12481 25.0611 3.66314L5.52719 6.65385C3.83132 6.8931 2.32388 7.79032 1.38173 9.10623C0.376773 10.4221 -8.65161e-05 12.0371 0.251153 13.6521L3.39165 32.2543C3.64289 33.8693 4.58504 35.3049 5.96686 36.2619C7.03462 37.0395 8.35363 37.3983 9.73545 37.3983C10.0495 37.3983 10.4264 37.3983 10.8032 37.3385L30.3371 34.3478C33.8545 33.8095 36.2412 30.6992 35.6759 27.3496L33.4776 15.9849Z" fill="#E42527"/>
<g id="Group_5">
<path id="Vector_4" d="M56.9059 24.8377L59.7951 18.7367L58.9786 13.0543C58.853 12.3964 59.0414 11.6786 59.4811 11.1403C59.9208 10.602 60.5489 10.2431 61.3026 10.1235L80.8993 7.61126C81.0249 7.61126 81.1505 7.61126 81.2761 7.61126C81.8414 7.61126 82.4067 7.7907 82.9092 8.14958C82.972 8.2094 83.0976 8.26921 83.1604 8.32903C84.0398 7.43181 85.1703 6.83367 86.4265 6.59441C86.0497 6.1159 85.61 5.6972 85.1075 5.33832C83.7257 4.32147 82.0298 3.90278 80.334 4.14203L60.6745 6.65423C58.9786 6.89349 57.4712 7.73088 56.4662 8.98698C55.3984 10.3029 54.9588 11.9179 55.21 13.5329L56.9059 24.8377Z" fill="#226DB4"/>
<path id="Vector_5" d="M90.3206 28.0077L87.7454 9.94385C86.3007 10.0037 85.1073 11.1401 85.1073 12.5159V17.8393L86.6148 28.4862C86.7404 29.1442 86.552 29.862 86.1123 30.4003C85.6726 30.9386 85.0445 31.2975 84.2908 31.4171L64.6941 33.9293C64.0032 34.049 63.2495 33.8695 62.6842 33.4508C62.1189 33.0321 61.7421 32.434 61.6164 31.7162L60.7371 25.3759L57.9106 31.477L58.0363 32.1947C58.2875 33.8097 59.1668 35.2453 60.4859 36.2023C61.6164 37.0397 62.9354 37.4584 64.3801 37.4584C64.6941 37.4584 64.9454 37.4584 65.2594 37.3986L84.8561 34.8864C86.552 34.6471 88.0594 33.8097 89.0644 32.5536C90.0693 31.2377 90.509 29.6227 90.3206 28.0077Z" fill="#226DB4"/>
</g>
</g>
<g id="Group_6">
<path id="Vector_6" d="M34.9851 46.4304L37.8115 42.4827H35.4875C35.3619 42.4827 35.2363 42.363 35.2363 42.2434V41.7051C35.2363 41.5854 35.3619 41.4658 35.4875 41.4658H39.2561C39.3817 41.4658 39.5074 41.5854 39.5074 41.7051V41.8845C39.5074 41.9443 39.5074 41.9443 39.4446 42.0041L36.6809 45.9519H39.1305C39.2561 45.9519 39.3817 46.0715 39.3817 46.1911V46.7295C39.3817 46.8491 39.2561 46.9687 39.1305 46.9687H35.1735C35.0479 46.9687 34.9222 46.8491 34.9222 46.7295V46.55C34.9222 46.4902 34.9851 46.4304 34.9851 46.4304Z" fill="black"/>
<path id="Vector_7" d="M46.7933 44.2173C46.7933 42.6023 48.0495 41.4658 49.7454 41.4658C51.5041 41.4658 52.6975 42.6023 52.6975 44.2771C52.6975 45.9519 51.5041 47.0884 49.7454 47.0884C47.9239 47.0285 46.7933 45.8921 46.7933 44.2173ZM51.3156 44.2173C51.3156 43.2603 50.8132 42.4229 49.6826 42.4229C48.552 42.4229 48.1123 43.3201 48.1123 44.2771C48.1123 45.2341 48.6148 46.0715 49.7454 46.0715C50.876 46.0715 51.3156 45.1145 51.3156 44.2173Z" fill="black"/>
<path id="Vector_8" d="M60.6745 41.5254H61.491C61.6166 41.5254 61.7422 41.645 61.7422 41.7646V43.7385H64.129V41.7646C64.129 41.645 64.2546 41.5254 64.3802 41.5254H65.1968C65.3224 41.5254 65.448 41.645 65.448 41.7646V46.789C65.448 46.9087 65.3224 47.0283 65.1968 47.0283H64.3802C64.2546 47.0283 64.129 46.9087 64.129 46.789V44.7554H61.7422V46.789C61.7422 46.9087 61.6166 47.0283 61.491 47.0283H60.6745C60.5488 47.0283 60.4232 46.9087 60.4232 46.789V41.7646C60.4232 41.5852 60.5488 41.5254 60.6745 41.5254Z" fill="black"/>
<path id="Vector_9" d="M73.1735 44.2173C73.1735 42.6023 74.4297 41.4658 76.1255 41.4658C77.8842 41.4658 79.0776 42.6023 79.0776 44.2771C79.0776 45.9519 77.8842 47.0884 76.1255 47.0884C74.3668 47.0285 73.1735 45.8921 73.1735 44.2173ZM77.6958 44.2173C77.6958 43.2603 77.1933 42.4229 76.0627 42.4229C74.9321 42.4229 74.4925 43.3201 74.4925 44.2771C74.4925 45.2341 74.9949 46.0715 76.1255 46.0715C77.2561 46.0715 77.6958 45.1145 77.6958 44.2173Z" fill="black"/>
</g>
</g>
</svg>
