<svg width="150" height="22" viewBox="0 0 150 22" fill="none" xmlns="http://www.w3.org/2000/svg">
<g id="Group">
<g id="Group_2">
<g id="Group_3">
<path id="Vector" d="M0 16.9224H20.2852L19.177 18.3732H0V16.9224Z" fill="#D40511"/>
<path id="Vector_2" d="M0 14.2324H22.3462L21.2357 15.6803H0V14.2324Z" fill="#D40511"/>
<path id="Vector_3" d="M0 19.6162H18.2258L17.1222 21.0567H0V19.6162Z" fill="#D40511"/>
</g>
<g id="Group_4">
<path id="Vector_4" d="M150 18.3737H129.794L130.902 16.9243H150V18.3737Z" fill="#D40511"/>
<path id="Vector_5" d="M150 21.0567L127.74 21.0582L128.842 19.6162H150V21.0567Z" fill="#D40511"/>
<path id="Vector_6" d="M132.96 14.2324H150V15.6818L131.852 15.6825L132.96 14.2324Z" fill="#D40511"/>
</g>
</g>
<g id="Group_5">
<path id="Vector_7" d="M19.6475 21.0569L29.2734 8.47803H41.2185C42.5388 8.47803 42.5215 8.96017 41.8766 9.80115C41.2214 10.655 40.1062 12.1233 39.4388 12.9901C39.1001 13.4304 38.4875 14.2327 40.5171 14.2327H56.5196C55.1887 15.9862 50.8716 21.0569 43.1205 21.0569H19.6475Z" fill="#D40511"/>
<path id="Vector_8" d="M74.7749 14.2314L69.5555 21.0567H55.7856C55.7856 21.0567 61.0029 14.2325 61.0076 14.2325L74.7749 14.2314Z" fill="#D40511"/>
<path id="Vector_9" d="M94.6866 14.2322L89.4643 21.0564H75.6997C75.6997 21.0564 80.9174 14.2322 80.9221 14.2322H94.6866Z" fill="#D40511"/>
<path id="Vector_10" d="M99.1643 14.2328C99.1643 14.2328 98.1586 15.5559 97.6697 16.1908C95.9407 18.4384 97.4688 21.0564 103.112 21.0564H125.218L130.439 14.2322L99.1643 14.2328Z" fill="#D40511"/>
</g>
<g id="Group_6">
<path id="Vector_11" d="M26.379 0.655273L21.5865 6.91783H47.7056C49.0257 6.91783 49.0084 7.39997 48.3632 8.24095C47.7079 9.09386 46.6111 10.579 45.9437 11.4458C45.6049 11.8852 44.9923 12.6874 47.022 12.6874H57.7029C57.7029 12.6874 59.4248 10.4338 60.8676 8.55011C62.831 5.98742 61.0378 0.655273 54.0191 0.655273H26.379Z" fill="#D40511"/>
<path id="Vector_12" d="M95.8691 12.6874H62.1903L71.4 0.655273H85.1648L79.8872 7.55389H86.0311L91.3125 0.655273H105.076L95.8691 12.6874Z" fill="#D40511"/>
<path id="Vector_13" d="M124.139 0.655273L114.931 12.6874H100.345C100.345 12.6874 109.556 0.655273 109.561 0.655273H124.139Z" fill="#D40511"/>
</g>
</g>
</svg>
