<svg width="142" height="118" viewBox="0 0 142 118" fill="none" xmlns="http://www.w3.org/2000/svg">
<g id="Group">
<path id="Vector" opacity="0.3" d="M111.76 49.3842C111.335 49.7222 76.4509 80.4517 34.2459 117.643H-6.10352e-05L89.2429 29.2939C89.9179 28.4684 90.6779 27.7124 91.5189 27.0412C94.2669 24.8474 97.8149 23.5363 101.682 23.5858C110.248 23.6963 117.098 30.3975 116.981 38.5535C116.922 42.8734 114.905 46.7239 111.76 49.3842Z" fill="url(#paint0_linear_0_549)"/>
<g id="Group_2">
<path id="Vector_2" d="M120.248 41.9614C120.248 41.9614 116.004 56.5388 104.105 57.3319L120.248 41.9614Z" fill="#305CDE"/>
<path id="Vector_3" d="M97.4932 20.2961C97.4932 20.2961 82.1832 24.337 81.3502 35.6666L97.4932 20.2961Z" fill="#305CDE"/>
<g id="Group_3">
<g id="Vector_4">
<path d="M90.0651 30.2875L109.763 49.0428C110.667 49.9035 112.132 49.9035 113.036 49.0428L135.263 27.8795C139.804 23.5558 140.881 11.3265 141.126 4.71952C141.216 2.30393 139.144 0.332037 136.607 0.41773C129.669 0.651006 116.824 1.67647 112.283 6.00016L90.0651 27.1549C89.1561 28.0195 89.1561 29.4229 90.0651 30.2875Z" fill="white"/>
<path d="M90.4097 29.9252L90.4099 29.9253L110.108 48.6807C110.819 49.3576 111.98 49.3576 112.691 48.6807L134.918 27.5174C135.981 26.5058 136.866 25.0043 137.596 23.18C138.324 21.3608 138.885 19.2528 139.315 17.0595C140.175 12.6726 140.504 7.9929 140.626 4.701L140.626 4.70091C140.705 2.60071 138.897 0.840664 136.624 0.917445L136.624 0.917448C133.165 1.03374 128.246 1.3473 123.634 2.16732C121.327 2.57733 119.109 3.11197 117.194 3.80668C115.273 4.50366 113.692 5.34931 112.628 6.36227L90.4099 27.517L90.4097 27.5172C89.7079 28.1847 89.7079 29.2577 90.4097 29.9252Z" stroke="black" stroke-opacity="0.48"/>
</g>
<path id="Vector_5" opacity="0.43" d="M139.849 1.63354C140.674 2.41906 141.17 3.5169 141.125 4.72613C140.879 11.334 139.802 23.5576 135.262 27.8804L113.044 49.0351C112.135 49.8997 110.662 49.8997 109.754 49.0351L99.9091 39.6612L139.849 1.63354Z" fill="#8E8E91"/>
</g>
<g id="Group_4">
<path id="Vector_6" d="M120.056 10.5058C117.186 13.2384 117.186 17.6678 120.056 20.4005C122.926 23.1331 127.578 23.1331 130.448 20.4005C133.318 17.6678 133.318 13.2384 130.448 10.5058C127.578 7.77314 122.926 7.77314 120.056 10.5058Z" fill="#305CDE"/>
<path id="Vector_7" d="M122.56 12.1224C120.618 13.5278 120.24 16.1662 121.715 18.0153C123.191 19.8644 125.962 20.2243 127.904 18.8198C129.846 17.4145 130.224 14.7761 128.748 12.927C127.274 11.0779 124.503 10.7171 122.56 12.1224Z" fill="#F2F2F6"/>
<path id="Vector_8" d="M122.56 12.1224C120.618 13.5278 120.24 16.1662 121.715 18.0153C123.191 19.8644 125.962 20.2243 127.904 18.8198C129.846 17.4145 130.224 14.7761 128.748 12.927C127.274 11.0779 124.503 10.7171 122.56 12.1224Z" fill="#E6E6FF"/>
<g id="Group_5">
<path id="Vector_9" d="M128.785 10.8701C128.436 11.2024 128.436 11.7404 128.785 12.0717C129.134 12.404 129.699 12.404 130.047 12.0717C130.395 11.7404 130.395 11.2014 130.047 10.8701C129.699 10.5378 129.134 10.5378 128.785 10.8701Z" fill="white"/>
<path id="Vector_10" d="M131.17 14.6289C130.677 14.6289 130.277 15.0098 130.277 15.4792C130.277 15.9486 130.677 16.3294 131.17 16.3294C131.663 16.3294 132.062 15.9486 132.062 15.4792C132.062 15.0088 131.662 14.6289 131.17 14.6289Z" fill="white"/>
<path id="Vector_11" d="M130.065 18.8901C129.717 18.5578 129.151 18.5578 128.803 18.8901C128.454 19.2224 128.454 19.7604 128.803 20.0917C129.151 20.424 129.717 20.424 130.065 20.0917C130.413 19.7604 130.413 19.2224 130.065 18.8901Z" fill="white"/>
<path id="Vector_12" d="M126.118 21.1596C126.118 20.6902 125.718 20.3103 125.225 20.3103C124.732 20.3103 124.332 20.6912 124.332 21.1596C124.332 21.629 124.732 22.0099 125.225 22.0099C125.718 22.0099 126.118 21.629 126.118 21.1596Z" fill="white"/>
<path id="Vector_13" d="M121.641 20.1083C121.99 19.776 121.99 19.238 121.641 18.9067C121.292 18.5744 120.727 18.5744 120.379 18.9067C120.03 19.239 120.03 19.7769 120.379 20.1083C120.728 20.4396 121.293 20.4396 121.641 20.1083Z" fill="white"/>
<path id="Vector_14" d="M119.257 16.3507C119.75 16.3507 120.15 15.9698 120.15 15.5004C120.15 15.031 119.75 14.6501 119.257 14.6501C118.764 14.6501 118.364 15.031 118.364 15.5004C118.365 15.9698 118.764 16.3507 119.257 16.3507Z" fill="white"/>
<path id="Vector_15" d="M120.362 12.0878C120.711 12.4201 121.276 12.4201 121.624 12.0878C121.972 11.7555 121.972 11.2175 121.624 10.8862C121.275 10.5539 120.71 10.5539 120.362 10.8862C120.013 11.2185 120.013 11.7564 120.362 12.0878Z" fill="white"/>
<path id="Vector_16" d="M124.309 9.81806C124.309 10.2875 124.709 10.6683 125.202 10.6683C125.695 10.6683 126.095 10.2875 126.095 9.81806C126.095 9.34865 125.695 8.96875 125.202 8.96875C124.709 8.96875 124.309 9.34865 124.309 9.81806Z" fill="white"/>
</g>
<g id="Group_6">
<g id="Group_7">
<g id="Clip path group">
<mask id="mask0_0_549" style="mask-type:luminance" maskUnits="userSpaceOnUse" x="120" y="11" width="10" height="9">
<g id="SVGID_00000091719372426307111990000014778143625727944340_">
<path id="Vector_17" d="M122.56 12.1224C120.618 13.5278 120.24 16.1662 121.715 18.0153C123.191 19.8644 125.962 20.2243 127.904 18.8198C129.846 17.4145 130.224 14.7761 128.748 12.927C127.274 11.0779 124.503 10.7171 122.56 12.1224Z" fill="white"/>
</g>
</mask>
<g mask="url(#mask0_0_549)">
<path id="Vector_18" opacity="0.43" d="M127.272 10.7846C125.33 12.19 124.952 14.8284 126.427 16.6775C127.903 18.5266 130.674 18.8865 132.616 17.4811C134.558 16.0757 134.936 13.4373 133.461 11.5883C131.985 9.73922 129.214 9.37928 127.272 10.7846Z" fill="white"/>
</g>
</g>
</g>
</g>
</g>
<path id="Vector_19" d="M92.1622 47.0589C92.1622 47.0589 92.2682 47.0351 92.4482 46.9847C93.8032 46.6067 95.0382 45.9116 96.0702 44.9947L109.367 33.1766C109.977 32.5958 109.977 31.6551 109.367 31.0743L108.949 30.6763C108.339 30.0955 107.351 30.0955 106.741 30.6763L94.7862 42.7419C93.5812 43.9578 92.6792 45.4203 92.1732 47.0218L92.1622 47.0589Z" fill="#305CDE"/>
</g>
</g>
<defs>
<linearGradient id="paint0_linear_0_549" x1="95.921" y1="18.2434" x2="31.6997" y2="135.069" gradientUnits="userSpaceOnUse">
<stop offset="0.0014" stop-color="#FFD700"/>
<stop offset="0.9967" stop-color="#FFD700" stop-opacity="0"/>
</linearGradient>
</defs>
</svg>
