<svg width="82" height="222" viewBox="0 0 82 222" fill="none" xmlns="http://www.w3.org/2000/svg">
<g id="Group">
<g id="Group_2">
<path id="Vector" d="M75.1403 3.89088C75.4869 5.67933 77.2903 6.86159 79.1686 6.53151C81.0469 6.20143 82.2886 4.48435 81.942 2.6959C81.5953 0.907447 79.792 -0.274807 77.9136 0.0552711C76.0353 0.385349 74.7936 2.10243 75.1403 3.89088Z" fill="#305CDE"/>
<path id="Vector_2" d="M48.3688 3.89088C48.7154 5.67933 50.5188 6.86159 52.3971 6.53151C54.2755 6.20143 55.5171 4.48435 55.1705 2.6959C54.8238 0.907447 53.0205 -0.274807 51.1421 0.0552711C49.2655 0.385349 48.0238 2.10243 48.3688 3.89088Z" fill="#305CDE"/>
<path id="Vector_3" d="M21.5983 3.89088C21.945 5.67933 23.7483 6.86159 25.6267 6.53151C27.505 6.20143 28.7467 4.48435 28.4 2.6959C28.0534 0.907447 26.25 -0.274807 24.3717 0.0552711C22.4933 0.385349 21.2517 2.10243 21.5983 3.89088Z" fill="#305CDE"/>
<path id="Vector_4" d="M-5.17224 3.89088C-4.82557 5.67933 -3.02224 6.86159 -1.1439 6.53151C0.734444 6.20143 1.97612 4.48435 1.62945 2.6959C1.28278 0.907447 -0.520546 -0.274807 -2.39889 0.0552711C-4.27723 0.385349 -5.51891 2.10243 -5.17224 3.89088Z" fill="#305CDE"/>
</g>
<g id="Group_3">
<path id="Vector_5" d="M75.1403 25.362C75.4869 27.1505 77.2903 28.3327 79.1686 28.0027C81.0469 27.6726 82.2886 25.9555 81.942 24.167C81.5953 22.3786 79.792 21.1964 77.9136 21.5265C76.0353 21.8565 74.7936 23.5736 75.1403 25.362Z" fill="#305CDE"/>
<path id="Vector_6" d="M48.3688 25.362C48.7154 27.1505 50.5188 28.3327 52.3971 28.0027C54.2755 27.6726 55.5171 25.9555 55.1705 24.167C54.8238 22.3786 53.0205 21.1964 51.1421 21.5265C49.2655 21.8565 48.0238 23.5736 48.3688 25.362Z" fill="#305CDE"/>
<path id="Vector_7" d="M21.5983 25.362C21.945 27.1505 23.7483 28.3327 25.6267 28.0027C27.505 27.6726 28.7467 25.9555 28.4 24.167C28.0534 22.3786 26.25 21.1964 24.3717 21.5265C22.4933 21.8565 21.2517 23.5736 21.5983 25.362Z" fill="#305CDE"/>
<path id="Vector_8" d="M-5.17224 25.362C-4.82557 27.1505 -3.02224 28.3327 -1.1439 28.0027C0.734444 27.6726 1.97612 25.9555 1.62945 24.167C1.28278 22.3786 -0.520546 21.1964 -2.39889 21.5265C-4.27723 21.8565 -5.51891 23.5736 -5.17224 25.362Z" fill="#305CDE"/>
</g>
<g id="Group_4">
<path id="Vector_9" d="M75.1403 46.8322C75.4869 48.6207 77.2903 49.8029 79.1686 49.4729C81.0469 49.1428 82.2886 47.4258 81.942 45.6373C81.5953 43.8489 79.792 42.6666 77.9136 42.9967C76.0353 43.3283 74.7936 45.0454 75.1403 46.8322Z" fill="#305CDE"/>
<path id="Vector_10" d="M48.3688 46.8322C48.7154 48.6207 50.5188 49.8029 52.3971 49.4729C54.2755 49.1428 55.5171 47.4258 55.1705 45.6373C54.8238 43.8489 53.0205 42.6666 51.1421 42.9967C49.2655 43.3283 48.0238 45.0454 48.3688 46.8322Z" fill="#305CDE"/>
<path id="Vector_11" d="M21.5983 46.8322C21.945 48.6207 23.7483 49.8029 25.6267 49.4729C27.505 49.1428 28.7467 47.4258 28.4 45.6373C28.0534 43.8489 26.25 42.6666 24.3717 42.9967C22.4933 43.3283 21.2517 45.0454 21.5983 46.8322Z" fill="#305CDE"/>
<path id="Vector_12" d="M-5.17224 46.8322C-4.82557 48.6207 -3.02224 49.8029 -1.1439 49.4729C0.734444 49.1428 1.97612 47.4258 1.62945 45.6373C1.28278 43.8489 -0.520546 42.6666 -2.39889 42.9967C-4.27723 43.3283 -5.51891 45.0454 -5.17224 46.8322Z" fill="#305CDE"/>
</g>
<g id="Group_5">
<path id="Vector_13" d="M75.1403 68.3054C75.4869 70.0939 77.2903 71.2761 79.1686 70.9461C81.0469 70.616 82.2886 68.8989 81.942 67.1105C81.5953 65.322 79.792 64.1397 77.9136 64.4698C76.0353 64.7999 74.7936 66.517 75.1403 68.3054Z" fill="#305CDE"/>
<path id="Vector_14" d="M48.3688 68.3054C48.7154 70.0939 50.5188 71.2761 52.3971 70.9461C54.2755 70.616 55.5171 68.8989 55.1705 67.1105C54.8238 65.322 53.0205 64.1397 51.1421 64.4698C49.2655 64.7999 48.0238 66.517 48.3688 68.3054Z" fill="#305CDE"/>
<path id="Vector_15" d="M21.5983 68.3054C21.945 70.0939 23.7483 71.2761 25.6267 70.9461C27.505 70.616 28.7467 68.8989 28.4 67.1105C28.0534 65.322 26.25 64.1397 24.3717 64.4698C22.4933 64.7999 21.2517 66.517 21.5983 68.3054Z" fill="#305CDE"/>
<path id="Vector_16" d="M-5.17224 68.3054C-4.82557 70.0939 -3.02224 71.2761 -1.1439 70.9461C0.734444 70.616 1.97612 68.8989 1.62945 67.1105C1.28278 65.322 -0.520546 64.1397 -2.39889 64.4698C-4.27723 64.7999 -5.51891 66.517 -5.17224 68.3054Z" fill="#305CDE"/>
</g>
<g id="Group_6">
<path id="Vector_17" d="M75.1403 89.7766C75.4869 91.5651 77.2903 92.7473 79.1686 92.4173C81.0469 92.0872 82.2886 90.3701 81.942 88.5816C81.5953 86.7932 79.792 85.6109 77.9136 85.941C76.0353 86.2711 74.7936 87.9882 75.1403 89.7766Z" fill="#305CDE"/>
<path id="Vector_18" d="M48.3688 89.7766C48.7154 91.5651 50.5188 92.7473 52.3971 92.4173C54.2755 92.0872 55.5171 90.3701 55.1705 88.5816C54.8238 86.7932 53.0205 85.6109 51.1421 85.941C49.2655 86.2711 48.0238 87.9882 48.3688 89.7766Z" fill="#305CDE"/>
<path id="Vector_19" d="M21.5983 89.7766C21.945 91.5651 23.7483 92.7473 25.6267 92.4173C27.505 92.0872 28.7467 90.3701 28.4 88.5816C28.0534 86.7932 26.25 85.6109 24.3717 85.941C22.4933 86.2711 21.2517 87.9882 21.5983 89.7766Z" fill="#305CDE"/>
<path id="Vector_20" d="M-5.17224 89.7766C-4.82557 91.5651 -3.02224 92.7473 -1.1439 92.4173C0.734444 92.0872 1.97612 90.3701 1.62945 88.5816C1.28278 86.7932 -0.520546 85.6109 -2.39889 85.941C-4.27723 86.2711 -5.51891 87.9882 -5.17224 89.7766Z" fill="#305CDE"/>
</g>
<g id="Group_7">
<path id="Vector_21" d="M75.1403 111.247C75.4869 113.036 77.2903 114.218 79.1686 113.888C81.0469 113.558 82.2886 111.841 81.942 110.052C81.5953 108.264 79.792 107.082 77.9136 107.412C76.0353 107.742 74.7936 109.459 75.1403 111.247Z" fill="#305CDE"/>
<path id="Vector_22" d="M48.3688 111.247C48.7154 113.036 50.5188 114.218 52.3971 113.888C54.2755 113.558 55.5171 111.841 55.1705 110.052C54.8238 108.264 53.0205 107.082 51.1421 107.412C49.2655 107.742 48.0238 109.459 48.3688 111.247Z" fill="#305CDE"/>
<path id="Vector_23" d="M21.5983 111.247C21.945 113.036 23.7483 114.218 25.6267 113.888C27.505 113.558 28.7467 111.841 28.4 110.052C28.0534 108.264 26.25 107.082 24.3717 107.412C22.4933 107.742 21.2517 109.459 21.5983 111.247Z" fill="#305CDE"/>
<path id="Vector_24" d="M-5.17224 111.247C-4.82557 113.036 -3.02224 114.218 -1.1439 113.888C0.734444 113.558 1.97612 111.841 1.62945 110.052C1.28278 108.264 -0.520546 107.082 -2.39889 107.412C-4.27723 107.742 -5.51891 109.459 -5.17224 111.247Z" fill="#305CDE"/>
</g>
<g id="Group_8">
<path id="Vector_25" d="M75.1403 132.718C75.4869 134.506 77.2903 135.689 79.1686 135.359C81.0469 135.029 82.2886 133.312 81.942 131.523C81.5953 129.735 79.792 128.552 77.9136 128.882C76.0353 129.212 74.7936 130.93 75.1403 132.718Z" fill="#305CDE"/>
<path id="Vector_26" d="M48.3688 132.718C48.7154 134.506 50.5188 135.689 52.3971 135.359C54.2755 135.029 55.5171 133.312 55.1705 131.523C54.8238 129.735 53.0205 128.552 51.1421 128.882C49.2655 129.212 48.0238 130.93 48.3688 132.718Z" fill="#305CDE"/>
<path id="Vector_27" d="M21.5983 132.718C21.945 134.506 23.7483 135.689 25.6267 135.359C27.505 135.029 28.7467 133.312 28.4 131.523C28.0534 129.735 26.25 128.552 24.3717 128.882C22.4933 129.212 21.2517 130.93 21.5983 132.718Z" fill="#305CDE"/>
<path id="Vector_28" d="M-5.17224 132.718C-4.82557 134.506 -3.02224 135.689 -1.1439 135.359C0.734444 135.029 1.97612 133.312 1.62945 131.523C1.28278 129.735 -0.520546 128.552 -2.39889 128.882C-4.27723 129.212 -5.51891 130.93 -5.17224 132.718Z" fill="#305CDE"/>
</g>
<g id="Group_9">
<path id="Vector_29" d="M75.1403 154.19C75.4869 155.978 77.2903 157.16 79.1686 156.83C81.0469 156.5 82.2886 154.783 81.942 152.995C81.5953 151.206 79.792 150.024 77.9136 150.354C76.0353 150.686 74.7936 152.403 75.1403 154.19Z" fill="#305CDE"/>
<path id="Vector_30" d="M48.3688 154.19C48.7154 155.978 50.5188 157.16 52.3971 156.83C54.2755 156.5 55.5171 154.783 55.1705 152.995C54.8238 151.206 53.0205 150.024 51.1421 150.354C49.2655 150.686 48.0238 152.403 48.3688 154.19Z" fill="#305CDE"/>
<path id="Vector_31" d="M21.5983 154.19C21.945 155.978 23.7483 157.16 25.6267 156.83C27.505 156.5 28.7467 154.783 28.4 152.995C28.0534 151.206 26.25 150.024 24.3717 150.354C22.4933 150.686 21.2517 152.403 21.5983 154.19Z" fill="#305CDE"/>
<path id="Vector_32" d="M-5.17224 154.19C-4.82557 155.978 -3.02224 157.16 -1.1439 156.83C0.734444 156.5 1.97612 154.783 1.62945 152.995C1.28278 151.206 -0.520546 150.024 -2.39889 150.354C-4.27723 150.686 -5.51891 152.403 -5.17224 154.19Z" fill="#305CDE"/>
</g>
<g id="Group_10">
<path id="Vector_33" d="M75.1403 175.662C75.4869 177.45 77.2903 178.633 79.1686 178.303C81.0469 177.972 82.2886 176.255 81.942 174.467C81.5953 172.678 79.792 171.496 77.9136 171.826C76.0353 172.156 74.7936 173.873 75.1403 175.662Z" fill="#305CDE"/>
<path id="Vector_34" d="M48.3688 175.662C48.7154 177.45 50.5188 178.633 52.3971 178.303C54.2755 177.972 55.5171 176.255 55.1705 174.467C54.8238 172.678 53.0205 171.496 51.1421 171.826C49.2655 172.156 48.0238 173.873 48.3688 175.662Z" fill="#305CDE"/>
<path id="Vector_35" d="M21.5983 175.662C21.945 177.45 23.7483 178.633 25.6267 178.303C27.505 177.972 28.7467 176.255 28.4 174.467C28.0534 172.678 26.25 171.496 24.3717 171.826C22.4933 172.156 21.2517 173.873 21.5983 175.662Z" fill="#305CDE"/>
<path id="Vector_36" d="M-5.17224 175.662C-4.82557 177.45 -3.02224 178.633 -1.1439 178.303C0.734444 177.972 1.97612 176.255 1.62945 174.467C1.28278 172.678 -0.520546 171.496 -2.39889 171.826C-4.27723 172.156 -5.51891 173.873 -5.17224 175.662Z" fill="#305CDE"/>
</g>
<g id="Group_11">
<path id="Vector_37" d="M75.1403 197.134C75.4869 198.922 77.2903 200.104 79.1686 199.774C81.0469 199.444 82.2886 197.727 81.942 195.939C81.5953 194.15 79.792 192.968 77.9136 193.298C76.0353 193.628 74.7936 195.345 75.1403 197.134Z" fill="#305CDE"/>
<path id="Vector_38" d="M48.3688 197.134C48.7154 198.922 50.5188 200.104 52.3971 199.774C54.2755 199.444 55.5171 197.727 55.1705 195.939C54.8238 194.15 53.0205 192.968 51.1421 193.298C49.2655 193.628 48.0238 195.345 48.3688 197.134Z" fill="#305CDE"/>
<path id="Vector_39" d="M21.5983 197.134C21.945 198.922 23.7483 200.104 25.6267 199.774C27.505 199.444 28.7467 197.727 28.4 195.939C28.0534 194.15 26.25 192.968 24.3717 193.298C22.4933 193.628 21.2517 195.345 21.5983 197.134Z" fill="#305CDE"/>
<path id="Vector_40" d="M-5.17224 197.134C-4.82557 198.922 -3.02224 200.104 -1.1439 199.774C0.734444 199.444 1.97612 197.727 1.62945 195.939C1.28278 194.15 -0.520546 192.968 -2.39889 193.298C-4.27723 193.628 -5.51891 195.345 -5.17224 197.134Z" fill="#305CDE"/>
</g>
<g id="Group_12">
<path id="Vector_41" d="M75.1403 218.603C75.4869 220.392 77.2903 221.574 79.1686 221.244C81.0469 220.914 82.2886 219.197 81.942 217.408C81.5953 215.62 79.792 214.438 77.9136 214.768C76.0353 215.098 74.7936 216.815 75.1403 218.603Z" fill="#305CDE"/>
<path id="Vector_42" d="M48.3688 218.603C48.7154 220.392 50.5188 221.574 52.3971 221.244C54.2755 220.914 55.5171 219.197 55.1705 217.408C54.8238 215.62 53.0205 214.438 51.1421 214.768C49.2655 215.098 48.0238 216.815 48.3688 218.603Z" fill="#305CDE"/>
<path id="Vector_43" d="M21.5983 218.603C21.945 220.392 23.7483 221.574 25.6267 221.244C27.505 220.914 28.7467 219.197 28.4 217.408C28.0534 215.62 26.25 214.438 24.3717 214.768C22.4933 215.098 21.2517 216.815 21.5983 218.603Z" fill="#305CDE"/>
<path id="Vector_44" d="M-5.17224 218.603C-4.82557 220.392 -3.02224 221.574 -1.1439 221.244C0.734444 220.914 1.97612 219.197 1.62945 217.408C1.28278 215.62 -0.520546 214.438 -2.39889 214.768C-4.27723 215.098 -5.51891 216.815 -5.17224 218.603Z" fill="#305CDE"/>
</g>
</g>
</svg>
