<svg width="28" height="28" viewBox="0 0 28 28" fill="none" xmlns="http://www.w3.org/2000/svg">
<g id="linkedin_symbol.svg" clip-path="url(#clip0_0_1341)">
<path id="Path 2520" d="M23.8259 23.5913H19.6825V17.1665C19.6825 15.6345 19.6549 13.6623 17.5276 13.6623C15.3696 13.6623 15.0394 15.3315 15.0394 17.055V23.5908H10.896V10.3789H14.8736V12.1845H14.9293C15.3274 11.5106 15.9026 10.9562 16.5937 10.5804C17.2848 10.2045 18.0659 10.0214 18.8539 10.0503C23.0533 10.0503 23.8276 12.7853 23.8276 16.3434L23.8259 23.5913ZM6.22094 8.57297C5.74539 8.57305 5.28048 8.43351 4.88503 8.17198C4.48957 7.91045 4.18134 7.53868 3.99928 7.10368C3.81721 6.66869 3.7695 6.19001 3.86219 5.72817C3.95488 5.26633 4.18381 4.84208 4.52002 4.50906C4.85623 4.17605 5.28462 3.94923 5.75102 3.85728C6.21742 3.76534 6.70087 3.8124 7.14025 3.99251C7.57964 4.17263 7.95521 4.47771 8.21949 4.86918C8.48376 5.26064 8.62487 5.72092 8.62496 6.19179C8.62501 6.50443 8.56287 6.81402 8.44209 7.10289C8.3213 7.39176 8.14426 7.65425 7.92103 7.87536C7.69779 8.09647 7.43274 8.27188 7.14104 8.39158C6.84935 8.51128 6.5367 8.57291 6.22094 8.57297ZM8.29262 23.5913H4.14495V10.3789H8.29262V23.5913ZM25.8915 0.00164225H2.06293C1.52209 -0.00440104 1.00092 0.202408 0.614 0.576625C0.227078 0.950842 0.00605136 1.46185 -0.000549316 1.99736V25.6891C0.00582545 26.2249 0.226722 26.7363 0.613631 27.1109C1.00054 27.4855 1.52182 27.6927 2.06293 27.687H25.8915C26.4337 27.6937 26.9564 27.4871 27.3449 27.1125C27.7333 26.7379 27.9557 26.226 27.9632 25.6891V1.99565C27.9555 1.45908 27.7329 0.94749 27.3445 0.573282C26.956 0.199074 26.4334 -0.00714457 25.8915 -6.78391e-05" fill="#0A66C2"/>
</g>
<defs>
<clipPath id="clip0_0_1341">
<rect width="28" height="28" fill="white"/>
</clipPath>
</defs>
</svg>
