<svg width="131" height="34" viewBox="0 0 131 34" fill="none" xmlns="http://www.w3.org/2000/svg">
<g id="Logo Alternative.svg">
<path id="Vector" d="M114.284 7.94223L111.488 25.4328C111.477 25.497 111.481 25.5628 111.499 25.6254C111.517 25.688 111.548 25.746 111.591 25.7953C111.633 25.8447 111.686 25.8841 111.746 25.9109C111.805 25.9377 111.87 25.9512 111.935 25.9504H115.244C115.36 25.9514 115.474 25.9108 115.563 25.8358C115.652 25.7608 115.711 25.6565 115.73 25.5417L118.526 8.05117C118.536 7.98695 118.532 7.92122 118.515 7.85859C118.497 7.79597 118.466 7.73796 118.423 7.68864C118.38 7.63933 118.327 7.59989 118.268 7.5731C118.208 7.5463 118.144 7.5328 118.078 7.53354H114.77C114.653 7.53123 114.539 7.57144 114.449 7.64664C114.36 7.72185 114.301 7.82692 114.284 7.94223ZM110.751 13.0464H107.612C107.495 13.0453 107.382 13.0858 107.293 13.1607C107.204 13.2355 107.144 13.3398 107.126 13.4544L107.022 14.0983C107.022 14.0983 104.584 11.4657 100.267 13.2448C97.7908 14.2635 96.602 16.368 96.0961 17.9098C96.0961 17.9098 94.4907 22.5955 98.1218 25.1747C98.1218 25.1747 101.489 27.6553 105.28 25.022L105.215 25.4328C105.199 25.5293 105.216 25.6281 105.263 25.7141C105.31 25.8 105.383 25.8684 105.472 25.9088C105.532 25.9366 105.596 25.9504 105.662 25.9504H108.803C108.92 25.9527 109.034 25.9125 109.124 25.8373C109.213 25.7621 109.272 25.6571 109.29 25.5417L111.2 13.564C111.211 13.4999 111.207 13.4342 111.189 13.3716C111.171 13.3091 111.139 13.2513 111.096 13.2025C111.054 13.1528 111.001 13.1129 110.941 13.0858C110.881 13.0587 110.816 13.0457 110.751 13.0464ZM106.132 19.666C106.009 20.5029 105.584 21.2665 104.937 21.8135C104.286 22.3626 103.458 22.6591 102.606 22.6483C102.271 22.6521 101.938 22.6039 101.619 22.5053C100.264 22.0751 99.4903 20.7887 99.7126 19.394C99.836 18.5575 100.261 17.7945 100.909 17.2478C101.559 16.6985 102.386 16.4011 103.238 16.4103C103.573 16.4069 103.906 16.4556 104.225 16.5546C105.589 16.9821 106.359 18.2706 106.135 19.6667H106.132V19.666ZM89.3692 19.997C91.0715 19.997 92.718 19.3947 94.0113 18.2997C95.3019 17.2085 96.1564 15.6923 96.4195 14.0268C96.9692 10.5623 94.2315 7.5384 90.3503 7.5384H84.0978C83.9811 7.53728 83.8679 7.57793 83.7787 7.65294C83.6896 7.72795 83.6305 7.83233 83.6121 7.94709L80.8158 25.4377C80.8007 25.5342 80.8176 25.6329 80.8642 25.7189C80.9108 25.8049 80.9843 25.8733 81.0736 25.9137C81.1336 25.9414 81.1977 25.9553 81.2632 25.9553H84.5737C84.6904 25.9564 84.8036 25.9158 84.8928 25.8408C84.9819 25.7657 85.041 25.6614 85.0594 25.5466L85.8802 20.4105C85.8975 20.2951 85.9564 20.1898 86.0459 20.1145C86.1354 20.0391 86.2494 19.9988 86.3666 20.0011L89.3692 19.997ZM92.1383 13.8693C91.9341 15.1502 90.9321 16.0932 89.0152 16.0932H86.5645L87.3087 11.4352H89.7155C91.6972 11.4387 92.3424 12.594 92.1383 13.8728V13.8693Z" fill="#0070E0"/>
<path id="Vector_2" d="M77.0441 13.3434L73.2576 19.6611L71.3358 13.3899C71.3057 13.2898 71.2438 13.2022 71.1593 13.1402C71.0749 13.0782 70.9725 13.0453 70.8676 13.0464H67.4504C67.362 13.0452 67.2762 13.0759 67.2087 13.1327C67.1412 13.1896 67.0966 13.2689 67.0832 13.3559C67.0749 13.4136 67.0809 13.4724 67.1006 13.5273L70.5442 24.0908L67.4295 29.0687C67.4031 29.1097 67.3853 29.1556 67.3773 29.2037C67.3693 29.2517 67.3712 29.3009 67.383 29.3482C67.3947 29.3955 67.416 29.4399 67.4456 29.4787C67.4752 29.5175 67.5124 29.5499 67.5549 29.5739C67.6119 29.6065 67.6767 29.6232 67.7424 29.6224H71.4229C71.528 29.6228 71.6313 29.5962 71.723 29.5451C71.8147 29.4941 71.8915 29.4203 71.9462 29.331L81.565 13.6029C81.5998 13.5481 81.619 13.4849 81.6203 13.4201C81.6217 13.3552 81.6052 13.2913 81.5726 13.2351C81.5401 13.1788 81.4931 13.1321 81.4363 13.1C81.3796 13.0679 81.3153 13.0516 81.25 13.0526H77.5709C77.4653 13.0517 77.3613 13.0779 77.269 13.1289C77.1767 13.1798 77.0992 13.2537 77.0441 13.3434ZM65.5133 13.0464H62.3714C62.2545 13.0453 62.1411 13.086 62.0518 13.1611C61.9626 13.2363 61.9034 13.3408 61.885 13.4558L61.7833 14.099C61.7833 14.099 59.343 11.4664 55.0263 13.2455C52.5506 14.2641 51.3611 16.3687 50.8573 17.9105C50.8573 17.9105 49.2505 22.5962 52.8808 25.1754C52.8808 25.1754 56.2485 27.656 60.0399 25.0227L59.9744 25.4335C59.9589 25.53 59.9758 25.6289 60.0224 25.7149C60.069 25.8009 60.1427 25.8693 60.2322 25.9095C60.2914 25.9373 60.3562 25.9511 60.4217 25.9511H63.5629C63.6795 25.952 63.7926 25.9112 63.8817 25.8363C63.9708 25.7613 64.03 25.6571 64.0486 25.5424L65.9599 13.5647C65.9755 13.4681 65.9587 13.3691 65.9121 13.2829C65.8655 13.1967 65.7917 13.1283 65.7021 13.088C65.6427 13.0608 65.5787 13.0466 65.5133 13.0464ZM60.8934 19.6674C60.7698 20.5032 60.3447 21.2656 59.6977 21.8121C59.0477 22.3612 58.2206 22.6583 57.3683 22.649C57.0344 22.6527 56.702 22.6044 56.383 22.506C55.0284 22.0758 54.2556 20.7894 54.4779 19.394C54.6017 18.5557 55.0287 17.7913 55.6785 17.2444C56.3309 16.695 57.1607 16.399 58.0149 16.411C58.3494 16.4075 58.6832 16.4561 59.0023 16.5553C60.352 16.9828 61.1206 18.2706 60.8976 19.6674H60.8934ZM44.1317 19.9977C45.8311 19.9968 47.4749 19.3945 48.7697 18.2984C50.0591 17.2071 50.9126 15.6915 51.1751 14.0268C51.7255 10.563 48.9871 7.53909 45.1072 7.53909H38.8541C38.7374 7.53792 38.6242 7.57845 38.5349 7.6533C38.4457 7.72816 38.3864 7.83239 38.3677 7.94709L35.5805 25.4328C35.5649 25.5294 35.5817 25.6285 35.6283 25.7146C35.6749 25.8008 35.7487 25.8693 35.8383 25.9095C35.8975 25.9366 35.9623 25.9511 36.0278 25.9511H39.3363C39.4532 25.9522 39.5666 25.9115 39.6558 25.8364C39.7451 25.7612 39.8043 25.6567 39.8227 25.5417L40.6421 20.4057C40.6595 20.2903 40.7185 20.1853 40.808 20.1101C40.8975 20.0349 41.0114 19.9947 41.1285 19.997L44.1317 19.9977ZM46.9008 13.8693C46.6967 15.1502 45.6954 16.0932 43.7784 16.0932H41.3278L42.0706 11.4352H44.4773C46.4598 11.4387 47.1043 12.5947 46.9008 13.8728V13.8693Z" fill="#003087"/>
<path id="Vector_3" d="M22.7431 8.43753C22.8177 4.57541 19.6186 1.61255 15.2197 1.61255H6.12073C5.90869 1.61245 5.70359 1.68775 5.54237 1.82489C5.38115 1.96203 5.2744 2.15199 5.24136 2.36055L1.59566 25.0455C1.57934 25.1483 1.5856 25.2534 1.61399 25.3535C1.64238 25.4537 1.69223 25.5465 1.76011 25.6257C1.82799 25.7048 1.91229 25.7684 2.0072 25.8119C2.1021 25.8555 2.20537 25.8781 2.30988 25.8781H7.70039L6.85795 31.1308C6.84164 31.2336 6.8479 31.3387 6.87629 31.4388C6.90468 31.539 6.95453 31.6319 7.02241 31.711C7.09029 31.7901 7.17458 31.8537 7.26949 31.8973C7.3644 31.9408 7.46767 31.9634 7.57218 31.9634H11.9635C12.1753 31.9634 12.3641 31.8878 12.5258 31.7511C12.6861 31.6137 12.7125 31.4243 12.746 31.2154L14.0351 23.6633C14.0678 23.4551 14.1744 23.1845 14.3354 23.0471C14.4964 22.9097 14.6371 22.8348 14.8497 22.8348H17.5365C21.8449 22.8348 25.4997 19.7852 26.1679 15.5442C26.641 12.5342 25.345 9.79545 22.7431 8.43753Z" fill="#001C64"/>
<path id="Vector_4" d="M8.86688 17.512L7.52413 25.9898L6.68099 31.3077C6.66479 31.4105 6.67114 31.5156 6.69962 31.6157C6.7281 31.7158 6.77804 31.8086 6.84598 31.8877C6.91392 31.9667 6.99827 32.0302 7.0932 32.0737C7.18814 32.1172 7.29142 32.1397 7.39592 32.1396H12.0436C12.2555 32.1395 12.4603 32.0641 12.6213 31.927C12.7822 31.7899 12.8887 31.6 12.9216 31.3916L14.1466 23.6625C14.1796 23.4541 14.2863 23.2642 14.4473 23.1271C14.6084 22.99 14.8134 22.9146 15.0253 22.9145H17.7609C22.0693 22.9145 25.7241 19.7851 26.393 15.5442C26.8668 12.5341 25.345 9.79469 22.7431 8.43677C22.7362 8.75734 22.7083 9.07722 22.6588 9.39432C21.9906 13.6339 18.3344 16.764 14.0274 16.764H9.74556C9.53358 16.7642 9.32864 16.8397 9.16757 16.977C9.00651 17.1142 8.89989 17.3035 8.86688 17.512Z" fill="#0070E0"/>
<path id="Vector_5" d="M7.52342 25.9898H2.11619C2.0117 25.9898 1.90845 25.9672 1.81357 25.9236C1.71869 25.8801 1.63443 25.8165 1.5666 25.7373C1.49877 25.6582 1.44899 25.5653 1.42069 25.4652C1.39239 25.365 1.38623 25.2599 1.40266 25.1572L5.04836 2.1357C5.08138 1.92725 5.18803 1.73738 5.34911 1.60026C5.51019 1.46314 5.71512 1.38776 5.92704 1.3877H15.2197C19.6186 1.3877 22.8177 4.57537 22.7431 8.4368C21.6484 7.86504 20.3621 7.53823 18.9532 7.53823H11.2061C10.994 7.53813 10.7889 7.61343 10.6277 7.75057C10.4665 7.8877 10.3597 8.07766 10.3267 8.28623L8.86757 17.512L7.52273 25.9898H7.52342Z" fill="#003087"/>
</g>
</svg>
