<svg width="174" height="47" viewBox="0 0 174 47" fill="none" xmlns="http://www.w3.org/2000/svg">
<g id="phonepe_logo.svg" clip-path="url(#clip0_0_1346)">
<g id="Group">
<path id="Vector" d="M23.6191 46.9708C36.6636 46.9708 47.2382 36.456 47.2382 23.4854C47.2382 10.5148 36.6636 0 23.6191 0C10.5746 0 0 10.5148 0 23.4854C0 36.456 10.5746 46.9708 23.6191 46.9708Z" fill="#5F259F"/>
<path id="Vector_2" d="M119.476 36.9224V28.3929C119.476 26.2897 118.683 25.2381 116.715 25.2381C115.922 25.2381 115.011 25.355 114.482 25.501V37.974C114.482 38.3537 114.1 38.7627 113.689 38.7627H110.663C110.281 38.7627 109.87 38.383 109.87 37.974V23.3979C109.87 22.8721 110.252 22.4923 110.663 22.3463C112.631 21.7037 114.629 21.2947 116.744 21.2947C121.503 21.2947 124.147 23.7776 124.147 28.3929V38.0909C124.147 38.4706 123.765 38.8795 123.354 38.8795H121.503C120.269 38.8795 119.476 37.974 119.476 36.9224ZM131.345 31.8106L131.227 32.979C131.227 34.5564 132.285 35.4619 133.989 35.4619C135.311 35.4619 136.486 35.0821 137.808 34.4103C137.925 34.4103 138.072 34.2935 138.189 34.2935C138.454 34.2935 138.571 34.4103 138.718 34.5564C138.836 34.6732 139.1 35.0821 139.1 35.0821C139.365 35.4619 139.629 35.9877 139.629 36.3966C139.629 37.0393 139.247 37.7111 138.718 37.974C137.279 38.7627 135.546 39.1424 133.695 39.1424C131.58 39.1424 129.876 38.6166 128.554 37.5651C127.232 36.3966 126.439 34.8193 126.439 32.8329V27.7211C126.439 23.6608 129.083 21.1486 133.577 21.1486C137.925 21.1486 140.451 23.5147 140.451 27.7211V30.8758C140.451 31.2555 140.07 31.6645 139.658 31.6645H131.345V31.8106ZM131.227 28.9187H136.251V27.6042C136.251 26.0268 135.34 24.9753 133.754 24.9753C132.167 24.9753 131.256 25.8808 131.256 27.6042C131.227 27.6042 131.227 28.9187 131.227 28.9187ZM164.864 31.8106L164.746 32.979C164.746 34.5564 165.804 35.4619 167.508 35.4619C168.83 35.4619 170.005 35.0821 171.327 34.4103C171.444 34.4103 171.591 34.2935 171.709 34.2935C171.973 34.2935 172.091 34.4103 172.237 34.5564C172.355 34.6732 172.619 35.0821 172.619 35.0821C172.884 35.4619 173.148 35.9877 173.148 36.3966C173.148 37.0393 172.766 37.7111 172.237 37.974C170.798 38.7627 169.065 39.1424 167.214 39.1424C165.099 39.1424 163.395 38.6166 162.073 37.5651C160.751 36.3966 159.958 34.8193 159.958 32.8329V27.7211C159.958 23.6608 162.602 21.1486 167.096 21.1486C171.444 21.1486 173.971 23.5147 173.971 27.7211V30.8758C173.971 31.2555 173.589 31.6645 173.177 31.6645H164.864V31.8106ZM164.746 28.9187H169.77V27.6042C169.77 26.0268 168.859 24.9753 167.273 24.9753C165.686 24.9753 164.776 25.8808 164.776 27.6042V28.9187H164.746ZM87.1322 38.8795H88.983C89.3649 38.8795 89.7761 38.4998 89.7761 38.0909V28.3929C89.7761 23.9237 87.3966 21.2947 83.4307 21.2947C82.2556 21.2947 80.9337 21.5576 80.1405 21.8205V16.9715C80.1405 15.9199 79.2298 15.0144 78.1722 15.0144H76.3215C75.9396 15.0144 75.5283 15.3941 75.5283 15.8031V38.1201C75.5283 38.4998 75.9102 38.9088 76.3215 38.9088H79.3473C79.7292 38.9088 80.1405 38.529 80.1405 38.1201V25.7639C80.7868 25.501 81.7268 25.3842 82.3731 25.3842C84.3414 25.3842 85.1346 26.2897 85.1346 28.539V37.0685C85.2815 37.974 86.0746 38.8795 87.1322 38.8795ZM107.05 27.8671V32.7161C107.05 36.7764 104.288 39.2885 99.6468 39.2885C95.1521 39.2885 92.2438 36.8056 92.2438 32.7161V27.8671C92.2438 23.8068 95.0052 21.2947 99.6468 21.2947C104.288 21.2947 107.05 23.8068 107.05 27.8671ZM102.438 27.8671C102.438 26.2897 101.527 25.2381 99.7937 25.2381C98.0605 25.2381 97.1498 26.1437 97.1498 27.8671V32.7161C97.1498 34.2935 98.0605 35.199 99.7937 35.199C101.527 35.199 102.438 34.2935 102.438 32.7161V27.8671ZM73.0019 25.6471C73.0019 29.8242 69.8292 32.7161 65.6282 32.7161C64.5707 32.7161 63.66 32.5992 62.7199 32.1903V38.0909C62.7199 38.4706 62.338 38.8795 61.9267 38.8795H58.9009C58.519 38.8795 58.1077 38.4998 58.1077 38.0909V17.2344C58.1077 16.7086 58.4896 16.3289 58.9009 16.1828C60.8692 15.5402 62.8668 15.1312 64.9819 15.1312C69.741 15.1312 73.0312 18.0231 73.0312 22.4923C73.0019 22.4923 73.0019 25.6471 73.0019 25.6471ZM68.2722 22.2294C68.2722 20.1263 66.8327 19.0747 64.8351 19.0747C63.66 19.0747 62.8668 19.4544 62.8668 19.4544V28.13C63.66 28.5097 64.0419 28.6558 64.9819 28.6558C66.9502 28.6558 68.4191 27.4874 68.4191 25.501V22.2294H68.2722ZM158.283 25.6471C158.283 29.8534 155.111 32.7453 150.88 32.7453C149.823 32.7453 148.912 32.6285 147.972 32.2195V38.1201C147.972 38.4998 147.59 38.9088 147.179 38.9088H144.153C143.771 38.9088 143.36 38.529 143.36 38.1201V17.2344C143.36 16.7086 143.742 16.3289 144.153 16.1828C146.121 15.5402 148.119 15.1312 150.234 15.1312C154.993 15.1312 158.283 18.0231 158.283 22.4923V25.6471ZM153.524 22.2294C153.524 20.1263 152.085 19.0747 150.087 19.0747C148.912 19.0747 148.119 19.4544 148.119 19.4544V28.13C148.912 28.5097 149.294 28.6558 150.234 28.6558C152.202 28.6558 153.671 27.4874 153.671 25.501V22.2294H153.524Z" fill="#5F259F"/>
<path id="Vector_3" d="M34.3417 17.351C34.3417 16.4455 33.5485 15.6568 32.6379 15.6568H29.4651L22.209 7.3902C21.5627 6.60152 20.5052 6.33862 19.4476 6.60152L16.9505 7.3902C16.5686 7.50705 16.4218 8.03284 16.6862 8.29574L24.6179 15.7737H12.6027C12.2208 15.7737 11.9565 16.0366 11.9565 16.4163V17.7308C11.9565 18.6363 12.7496 19.425 13.6603 19.425H15.5111V25.7637C15.5111 30.4959 18.0081 33.2417 22.2384 33.2417C23.5604 33.2417 24.6179 33.1248 25.9399 32.599V36.8054C25.9399 37.9738 26.8506 38.9085 28.055 38.9085H29.9058C30.2877 38.9085 30.699 38.5288 30.699 38.1199V19.3666H33.7248C34.1067 19.3666 34.3711 19.1037 34.3711 18.724C34.3417 18.6655 34.3417 17.351 34.3417 17.351ZM25.8811 28.6556C25.088 29.0353 24.0304 29.1814 23.2372 29.1814C21.1221 29.1814 20.0645 28.1298 20.0645 25.7637V19.4542H25.8811V28.6556Z" fill="white"/>
</g>
</g>
<defs>
<clipPath id="clip0_0_1346">
<rect width="174" height="47" fill="white"/>
</clipPath>
</defs>
</svg>
