<svg width="30" height="33" viewBox="0 0 30 33" fill="none" xmlns="http://www.w3.org/2000/svg">
<g id="Group 1000001935">
<path id="Polygon 29" d="M21.5 14.7113L22.25 16.0104C21.4765 16.4569 20.5235 16.4569 19.75 16.0104L15.5538 13.5877C14.7803 13.1411 14.3038 12.3158 14.3038 11.4226V6.57735C14.3038 5.68419 14.7803 4.85887 15.5538 4.41229M21.5 14.7113L15.5538 4.41229M21.5 14.7113L22.25 16.0104L26.4462 13.5877C27.2197 13.1411 27.6962 12.3158 27.6962 11.4226V6.57735C27.6962 5.68419 27.2197 4.85887 26.4462 4.41229L22.25 1.98964C21.4765 1.54306 20.5235 1.54305 19.75 1.98964M21.5 14.7113L19.75 1.98964M15.5538 4.41229L19.75 1.98964M15.5538 4.41229L19.75 1.98964" stroke="#5C7BFF" stroke-width="3"/>
<path id="Polygon 30" d="M9.5 29.7113L10.25 31.0104C9.4765 31.4569 8.5235 31.4569 7.75 31.0104L3.55385 28.5877C2.78034 28.1411 2.30385 27.3158 2.30385 26.4226V21.5774C2.30385 20.6842 2.78035 19.8589 3.55385 19.4123M9.5 29.7113L3.55385 19.4123M9.5 29.7113L10.25 31.0104L14.4462 28.5877C15.2197 28.1411 15.6962 27.3158 15.6962 26.4226V21.5774C15.6962 20.6842 15.2197 19.8589 14.4462 19.4123L10.25 16.9896C9.4765 16.5431 8.5235 16.5431 7.75 16.9896M9.5 29.7113L7.75 16.9896M3.55385 19.4123L7.75 16.9896M3.55385 19.4123L7.75 16.9896" stroke="#5C7BFF" stroke-width="3"/>
</g>
</svg>
